0
SECTION
2
HEADER
9
$INSUNITS
70
4
9
$ACADVER
1
AC1014
9
$HANDSEED
5
FFFF
0
ENDSEC
0
SECTION
2
TABLES
0
TABLE
2
VPORT
5
8
100
AcDbSymbolTable
0
ENDTAB
0
TABLE
2
LTYPE
5
5
100
AcDbSymbolTable
0
LTYPE
5
14
100
AcDbSymbolTableRecord
100
AcDbLinetypeTableRecord
2
BYBLOCK
70
0
0
LTYPE
5
15
100
AcDbSymbolTableRecord
100
AcDbLinetypeTableRecord
2
BYLAYER
70
0
0
ENDTAB
0
TABLE
2
LAYER
5
2
100
AcDbSymbolTable
70
2
0
LAYER
5
50
100
AcDbSymbolTableRecord
100
AcDbLayerTableRecord
2
0
70
0
6
CONTINUOUS
0
ENDTAB
0
TABLE
2
STYLE
5
3
100
AcDbSymbolTable
70
1
0
STYLE
5
11
100
AcDbSymbolTableRecord
100
AcDbTextStyleTableRecord
2
STANDARD
70
0
0
ENDTAB
0
TABLE
2
VIEW
5
6
100
AcDbSymbolTable
70
0
0
ENDTAB
0
TABLE
2
UCS
5
7
100
AcDbSymbolTable
70
0
0
ENDTAB
0
TABLE
2
APPID
5
9
100
AcDbSymbolTable
70
2
0
APPID
5
12
100
AcDbSymbolTableRecord
100
AcDbRegAppTableRecord
2
ACAD
70
0
0
ENDTAB
0
TABLE
2
DIMSTYLE
5
A
100
AcDbSymbolTable
70
1
0
ENDTAB
0
TABLE
2
BLOCK_RECORD
5
1
100
AcDbSymbolTable
70
1
0
BLOCK_RECORD
5
1F
100
AcDbSymbolTableRecord
100
AcDbBlockTableRecord
2
*MODEL_SPACE
0
BLOCK_RECORD
5
1B
100
AcDbSymbolTableRecord
100
AcDbBlockTableRecord
2
*PAPER_SPACE
0
ENDTAB
0
ENDSEC
0
SECTION
2
BLOCKS
0
BLOCK
5
20
100
AcDbEntity
100
AcDbBlockBegin
2
*MODEL_SPACE
0
ENDBLK
5
21
100
AcDbEntity
100
AcDbBlockEnd
0
BLOCK
5
1C
100
AcDbEntity
100
AcDbBlockBegin
2
*PAPER_SPACE
0
ENDBLK
5
1D
100
AcDbEntity
100
AcDbBlockEnd
0
ENDSEC
0
SECTION
2
ENTITIES
0
LWPOLYLINE
5
100
100
AcDbEntity
8
0
100
AcDbPolyline
90
56
70
1
43
0.0
10
-348.88750000000005
20
0.024999999999999745
42
0.4142135623730997
10
-345.88750000000005
20
-2.9750000000000201
10
-342.76048334620748
20
-2.975000000000001
42
0.34199871311965518
10
-341.79223750965559
20
-2.2249999999999996
42
-0.77459666924148518
10
-335.98276249034438
20
-2.2249999999999952
42
0.34199871311965563
10
-335.01451665379255
20
-2.9750000000000139
10
-232.72331667954074
20
-2.975000000000001
42
0.34199871311964575
10
-231.75507084298889
20
-2.2250000000000041
42
-0.77459666924148396
10
-225.94559582367776
20
-2.2249999999999992
42
0.34199871311964719
10
-224.9773499871259
20
-2.9749999999999943
10
-122.68565001287408
20
-2.975000000000001
42
0.34199871311963476
10
-121.71740417632222
20
-2.2249999999999965
42
-0.77459666924148318
10
-115.90792915701108
20
-2.2250000000000014
42
0.34199871311963476
10
-114.93968332045922
20
-2.9750000000000023
10
-12.647983346207408
20
-2.975000000000001
42
0.34199871311964636
10
-11.679737509655562
20
-2.2250000000000019
42
-0.77459666924148352
10
-5.8702624903444356
20
-2.2250000000000014
42
0.34199871311964575
10
-4.9020166537925833
20
-2.975000000000001
10
-1.7749999999999999
20
-2.975000000000001
42
0.4142135623730952
10
1.225000000000001
20
0.025000000000000029
10
1.2250000000000005
20
27.379248688935412
42
0.18267581368159902
10
0.97499999999999942
20
28.040686516701562
42
-0.37796447300922709
10
0.97500000000000009
20
32.009313483298449
42
0.18267581368159902
10
1.225000000000003
20
32.670751311064599
10
1.2250000000000005
20
113.39174868893539
42
0.18267581368160141
10
0.97499999999999309
20
114.05318651670156
42
-0.37796447300922631
10
0.97499999999999187
20
118.02181348329844
42
0.18267581368160168
10
1.2249999999999992
20
118.68325131106459
10
1.2250000000000005
20
119.03749999999999
42
0.41421356237309365
10
-1.7750000000000001
20
122.03749999999999
10
-4.9020166537925833
20
122.03749999999999
42
0.34199871311963842
10
-5.8702624903444356
20
121.28749999999999
42
-0.77459666924148518
10
-11.679737509655563
20
121.28749999999999
42
0.34199871311963459
10
-12.647983346207425
20
122.03749999999998
10
-114.93968332045922
20
122.03749999999999
42
0.34199871311962793
10
-115.90792915701108
20
121.28749999999999
42
-0.77459666924148551
10
-121.71740417632222
20
121.28749999999999
42
0.34199871311962793
10
-122.68565001287408
20
122.03749999999998
10
-224.9773499871259
20
122.03749999999999
42
0.34199871311964475
10
-225.94559582367776
20
121.28749999999999
42
-0.77459666924148551
10
-231.75507084298889
20
121.28749999999999
42
0.34199871311964475
10
-232.72331667954074
20
122.03749999999998
10
-335.01451665379255
20
122.03749999999999
42
0.34199871311966401
10
-335.98276249034438
20
121.28749999999998
42
-0.77459666924148318
10
-341.79223750965559
20
121.28749999999998
42
0.34199871311966401
10
-342.76048334620748
20
122.03750000000001
10
-345.88750000000005
20
122.03749999999999
42
0.41421356237310025
10
-348.88750000000005
20
119.03749999999999
10
-348.88750000000005
20
118.68325131106458
42
0.18267581368154559
10
-348.63750000000005
20
118.02181348329846
42
-0.37796447300922803
10
-348.63750000000005
20
114.05318651670154
42
0.18267581368154212
10
-348.88750000000005
20
113.39174868893544
10
-348.88750000000005
20
32.670751311065303
42
0.18267581368154878
10
-348.63749999999993
20
32.009313483299181
42
-0.37796447300922736
10
-348.63750000000005
20
28.040686516702262
42
0.18267581368154331
10
-348.88750000000005
20
27.379248688936162
0
LWPOLYLINE
5
101
100
AcDbEntity
8
0
100
AcDbPolyline
90
4
70
1
43
0.0
10
-260.81250000000006
20
-1.0750000000000082
42
0.99999999999999989
10
-261.41250000000008
20
-1.0750000000000082
10
-261.41250000000002
20
-1.6750000000000043
42
0.99999999999999989
10
-260.81250000000006
20
-1.6750000000000043
0
LWPOLYLINE
5
102
100
AcDbEntity
8
0
100
AcDbPolyline
90
4
70
1
43
0.0
10
-270.01250000000005
20
-1.6750000000000043
42
0.99999999999999989
10
-269.41250000000002
20
-1.6750000000000043
10
-269.41250000000002
20
-1.0750000000000037
42
0.99999999999999989
10
-270.01249999999999
20
-1.0750000000000037
0
CIRCLE
5
103
100
AcDbEntity
8
0
100
AcDbCircle
10
-262.52250000000004
20
2.2739999999999894
30
0
40
0.32499999999998863
210
0
220
0
230
1
0
CIRCLE
5
104
100
AcDbEntity
8
0
100
AcDbCircle
10
-268.30250000000001
20
2.2739999999999894
30
0
40
0.32499999999998863
210
0
220
0
230
1
0
LWPOLYLINE
5
105
100
AcDbEntity
8
0
100
AcDbPolyline
90
4
70
1
43
0.0
10
-260.81250000000006
20
3.3749999999999813
42
0.99999999999999989
10
-261.41250000000008
20
3.3749999999999813
10
-261.41250000000002
20
2.2749999999999826
42
0.99999999999999989
10
-260.81250000000006
20
2.2749999999999826
0
LWPOLYLINE
5
106
100
AcDbEntity
8
0
100
AcDbPolyline
90
4
70
1
43
0.0
10
-270.01250000000005
20
2.274999999999987
42
0.99999999999999989
10
-269.41250000000002
20
2.274999999999987
10
-269.41250000000002
20
3.3749999999999858
42
0.99999999999999989
10
-270.01249999999999
20
3.3749999999999858
0
CIRCLE
5
107
100
AcDbEntity
8
0
100
AcDbCircle
10
-9.5249999999999986
20
9.5249999999999986
30
0
40
1.9938999999999996
210
0
220
-0
230
1
0
CIRCLE
5
108
100
AcDbEntity
8
0
100
AcDbCircle
10
-190.98750000000001
20
103.98750000000001
30
0
40
2.5
210
0
220
-0
230
1
0
CIRCLE
5
109
100
AcDbEntity
8
0
100
AcDbCircle
10
-133.07499999999999
20
42.1875
30
0
40
2.5
210
0
220
-0
230
1
0
CIRCLE
5
110
100
AcDbEntity
8
0
100
AcDbCircle
10
-328.38750000000005
20
115.03749999999999
30
0
40
2.5
210
0
220
-0
230
1
0
CIRCLE
5
111
100
AcDbEntity
8
0
100
AcDbCircle
10
-328.38750000000005
20
42.087500000000006
30
0
40
2.5
210
0
220
-0
230
1
0
CIRCLE
5
112
100
AcDbEntity
8
0
100
AcDbCircle
10
-26.075000000000003
20
44.837500000000006
30
0
40
2.5000000000000044
210
0
220
-0
230
1
0
CIRCLE
5
113
100
AcDbEntity
8
0
100
AcDbCircle
10
-26.431249999999999
20
102.53750000000002
30
0
40
2.5
210
0
220
-0
230
1
0
CIRCLE
5
114
100
AcDbEntity
8
0
100
AcDbCircle
10
-244.36250000000001
20
66.6875
30
0
40
1.4999999999999858
210
0
220
-0
230
1
0
CIRCLE
5
115
100
AcDbEntity
8
0
100
AcDbCircle
10
-40.887500000000003
20
83.237500000000011
30
0
40
1.5000000000000036
210
0
220
-0
230
1
0
ENDSEC
0
SECTION
2
OBJECTS
0
DICTIONARY
5
C
100
AcDbDictionary
3
ACAD_GROUP
350
D
3
ACAD_MLINESTYLE
350
17
0
DICTIONARY
5
D
100
AcDbDictionary
0
DICTIONARY
5
1A
330
C
100
AcDbDictionary
0
DICTIONARY
5
17
100
AcDbDictionary
0
ENDSEC
0
EOF
