M48
;Layer_Color=9474304
;FILE_FORMAT=2:4
INCH,TZ
;TYPE=PLATED
T3F00S00C0.0236
T6F00S00C0.0630
;TYPE=NON_PLATED
%
G90
G05
T03
G00X-102444Y2863
M15
G01Y2430
M16
G00X-102444Y4410
M15
G01Y4174
M16
G00X-99042Y4410
M15
G01Y4174
M16
G00X-99042Y2863
M15
G01Y2430
M16
T06
G00X-130349Y-37607
M15
G01X-130369Y-37371
M16
G00X-122849Y-37607
M15
G01X-122869Y-37371
M16
G00X-122849Y-30107
M15
G01X-122869Y-29871
M16
G00X-115349Y-37607
M15
G01X-115369Y-37371
M16
G00X-105036Y-37607
M15
G01X-105057Y-37371
M16
G00X-104099Y-37607
M15
G01X-104119Y-37371
M16
G00X-95661Y-37607
M15
G01X-95682Y-37371
M16
G00X-94724Y-37607
M15
G01X-94744Y-37371
M16
G00X-95661Y-30107
M15
G01X-95682Y-29871
M16
G00X-99411Y-30107
M15
G01X-99432Y-29871
M16
G00X-105974Y-30107
M15
G01X-105995Y-29871
M16
G00X-85349Y-30107
M15
G01X-85369Y-29871
M16
G00X-77849Y-30107
M15
G01X-77869Y-29871
M16
G00X-76911Y-37607
M15
G01X-76932Y-37371
M16
G00X-85349Y-37607
M15
G01X-85369Y-37371
M16
G00X-86286Y-37607
M15
G01X-86307Y-37371
M16
G00X-70349Y-30107
M15
G01X-70369Y-29871
M16
G00X-62849Y-30107
M15
G01X-62869Y-29871
M16
G00X-55349Y-30107
M15
G01X-55369Y-29871
M16
G00X-47849Y-30107
M15
G01X-47869Y-29871
M16
G00X-48774Y-37607
M15
G01X-48794Y-37371
M16
G00X-53461Y-37607
M15
G01X-53482Y-37371
M16
G00X-40349Y-30107
M15
G01X-40369Y-29871
M16
G00X-32849Y-30107
M15
G01X-32869Y-29871
M16
G00X-25349Y-30107
M15
G01X-25369Y-29871
M16
G00X-17849Y-30107
M15
G01X-17869Y-29871
M16
G00X-20661Y-37607
M15
G01X-20682Y-37371
M16
G00X-21599Y-37607
M15
G01X-21619Y-37371
M16
G00X-12224Y-37607
M15
G01X-12244Y-37371
M16
G00X-11286Y-37607
M15
G01X-11307Y-37371
M16
G00X-2849Y-37607
M15
G01X-2870Y-37371
M16
G00X-1911Y-37607
M15
G01X-1932Y-37371
M16
G00X-1911Y-30107
M15
G01X-1932Y-29871
M16
G00X-5661Y-30107
M15
G01X-5682Y-29871
M16
G00X-10348Y-30107
M15
G01X-10369Y-29871
M16
G00X-3786Y-22607
M15
G01X-3807Y-22371
M16
G00X-1911Y-22607
M15
G01X-1932Y-22371
M16
G00X-2849Y-15107
M15
G01X-2870Y-14871
M16
G00X-12224Y-15107
M15
G01X-12245Y-14871
M16
G00X-19724Y-15107
M15
G01X-19745Y-14871
M16
G00X-27224Y-15107
M15
G01X-27245Y-14871
M16
G00X-21599Y-22607
M15
G01X-21620Y-22371
M16
G00X-14099Y-22607
M15
G01X-14120Y-22371
M16
G00X-29099Y-22607
M15
G01X-29120Y-22371
M16
G00X-36599Y-22607
M15
G01X-36620Y-22371
M16
G00X-44099Y-22607
M15
G01X-44120Y-22371
M16
G00X-42224Y-15107
M15
G01X-42245Y-14871
M16
G00X-34724Y-15107
M15
G01X-34745Y-14871
M16
G00X-49724Y-15107
M15
G01X-49745Y-14871
M16
G00X-57224Y-15107
M15
G01X-57245Y-14871
M16
G00X-59099Y-22607
M15
G01X-59120Y-22371
M16
G00X-51599Y-22607
M15
G01X-51620Y-22371
M16
G00X-66599Y-22607
M15
G01X-66620Y-22371
M16
G00X-74099Y-22607
M15
G01X-74120Y-22371
M16
G00X-72224Y-15107
M15
G01X-72245Y-14871
M16
G00X-64724Y-15107
M15
G01X-64745Y-14871
M16
G00X-79724Y-15107
M15
G01X-79745Y-14871
M16
G00X-87224Y-15107
M15
G01X-87245Y-14871
M16
G00X-89099Y-22607
M15
G01X-89120Y-22371
M16
G00X-81599Y-22607
M15
G01X-81620Y-22371
M16
G00X-96599Y-22607
M15
G01X-96620Y-22371
M16
G00X-101254Y-22607
M15
G01X-101275Y-22371
M16
G00X-102264Y-19649
M15
G01X-102028Y-19628
M16
G00X-104099Y-15107
M15
G01X-104120Y-14871
M16
G00X-94724Y-15107
M15
G01X-94745Y-14871
M16
G00X-115349Y-15107
M15
G01X-115369Y-14871
M16
G00X-122849Y-15107
M15
G01X-122869Y-14871
M16
G00X-130349Y-15107
M15
G01X-130369Y-14871
M16
G00X-130349Y-7607
M15
G01X-130369Y-7371
M16
G00X-122849Y-7607
M15
G01X-122869Y-7371
M16
G00X-122849Y1768
M15
G01X-122869Y2003
M16
G00X-130349Y1768
M15
G01X-130369Y2003
M16
G00X-115349Y1768
M15
G01X-115369Y2003
M16
G00X-115349Y-7607
M15
G01X-115369Y-7371
M16
G00X-105974Y-7607
M15
G01X-105995Y-7371
M16
G00X-102224Y-7607
M15
G01X-102245Y-7371
M16
G00X-98474Y-7607
M15
G01X-98495Y-7371
M16
G00X-96599Y1768
M15
G01X-96620Y2003
M16
G00X-105974Y1768
M15
G01X-105995Y2003
M16
G00X-89099Y1768
M15
G01X-89120Y2003
M16
G00X-81599Y1768
M15
G01X-81620Y2003
M16
G00X-83474Y-7607
M15
G01X-83495Y-7371
M16
G00X-90974Y-7607
M15
G01X-90995Y-7371
M16
G00X-75974Y-7607
M15
G01X-75995Y-7371
M16
G00X-68474Y-7607
M15
G01X-68495Y-7371
M16
G00X-60974Y-7607
M15
G01X-60995Y-7371
M16
G00X-64724Y1768
M15
G01X-64745Y2003
M16
G00X-74099Y1768
M15
G01X-74120Y2003
M16
G00X-57224Y1768
M15
G01X-57245Y2003
M16
G00X-49724Y1768
M15
G01X-49745Y2003
M16
G00X-53474Y-7607
M15
G01X-53495Y-7371
M16
G00X-45974Y-7607
M15
G01X-45995Y-7371
M16
G00X-38474Y-7607
M15
G01X-38495Y-7371
M16
G00X-30974Y-7607
M15
G01X-30995Y-7371
M16
G00X-32849Y1768
M15
G01X-32869Y2003
M16
G00X-42224Y1768
M15
G01X-42245Y2003
M16
G00X-25349Y1768
M15
G01X-25369Y2003
M16
G00X-17849Y1768
M15
G01X-17869Y2003
M16
G00X-15974Y-7607
M15
G01X-15995Y-7371
M16
G00X-23474Y-7607
M15
G01X-23495Y-7371
M16
G00X-8474Y-7607
M15
G01X-8495Y-7371
M16
G00X-974Y-7607
M15
G01X-995Y-7371
M16
G00X-974Y1768
M15
G01X-995Y2003
M16
G00X-10349Y1768
M15
G01X-10369Y2003
M16
M17
M30
