M48
;Layer_Color=9474304
;FILE_FORMAT=2:4
INCH,TZ
;TYPE=PLATED
T1F00S00C0.0118
T2F00S00C0.0197
T4F00S00C0.0354
T5F00S00C0.0591
;TYPE=NON_PLATED
T7F00S00C0.0256
T8F00S00C0.0392
T9F00S00C0.0454
T10F00S00C0.0669
T11F00S00C0.1181
T12F00S00C0.1200
T13F00S00C0.1570
T14F00S00C0.1575
T15F00S00C0.1732
T16F00S00C0.1969
%
T01
X-124846Y-39606
X-124599Y-39313
X-90150Y-33975
X-89950Y-33625
X-90700Y-25875
X-90506Y-25540
X-3800Y-25725
X-3150Y-27375
X-200Y-26275
X-700Y-25625
X-25800Y-14325
X-39400Y-19325
X-48400Y-21325
X-68150Y-14675
X-71735Y-10902
X-71750Y-10275
X-80650Y-11575
X-83750Y-10025
X-86950Y-9425
X-83250Y-18025
X-83500Y-18386
X-108755Y-20331
X-108752Y-11859
X-123696Y-10829
X-125625Y-7900
X-122032Y-3583
X-120950Y-2925
X-120800Y-1175
X-121850Y2425
X-114450Y-3425
X-113410Y-3750
X-112350Y-3975
X-111358Y-4375
X-110200Y-4375
X-109100
X-108015Y-4382
X-107880Y-3750
X-107900Y-5425
X-108447Y-5894
X-108300Y-6425
X-108327Y-7249
X-110250Y-6375
X-110950Y-5475
X-110750Y-3625
X-114950Y-4675
X-114850Y-6125
X-106950Y-3975
X-105100Y-3375
X-105150Y-2575
X-102800
Y-3325
X-103800Y-4025
X-101050Y-4525
X-100216Y-3194
Y-2794
X-100177Y-2406
Y-1737
Y-792
X-100098Y74
X-100256Y625
X-101250Y468
X-101988Y468
X-102697Y1058
X-102579Y1767
X-101752Y1609
X-100886
X-100562Y1607
X-99075Y1767
X-98681Y1019
X-99075Y310
X-98550Y-725
X-98878Y-2160
X-99700Y-2625
Y-3375
X-98878Y-3967
X-97950Y-3375
Y-2625
X-95800
Y-3375
X-93450
X-93500Y-2625
X-92150Y-4719
X-93650Y-6025
X-94700Y-6075
X-94650Y-6775
X-101250Y-2475
Y-1701
Y-943
Y-294
X-103878Y-477
X-91100Y-2625
X-91050Y-4775
X-90700Y-5975
X-89086Y-5625
X-88700Y-5775
X-89200Y-4625
X-89953Y-4275
X-88940Y-3750
X-88800Y-2625
X-88050Y-1875
X-87221Y-2242
X-86522Y-1919
X-87221Y-1146
X-86710Y-3401
Y-4014
X-86404Y-3707
X-86098Y-4014
X-86404Y-4320
X-86710Y-4626
X-87016Y-4320
X-87322Y-4014
X-87016Y-3707
X-87322Y-4626
X-87629Y-4320
X-87935Y-4626
X-87629Y-4932
X-87322Y-5239
X-86710
X-86404Y-4932
X-87016
Y-5545
X-86710Y-5851
X-86404Y-5545
X-86098Y-5239
X-85791Y-4932
X-85485Y-4626
X-85791Y-4320
X-86098Y-4626
X-84489Y-4592
X-84800Y-6075
Y-6425
X-83950
X-84000Y-5925
X-85250Y-7225
X-85500Y-6975
X-85789Y-7615
X-85987Y-7887
X-86800Y-8025
Y-7675
X-87000Y-6875
X-87550Y-6825
X-87700Y-7975
X-87300Y-9025
X-79816Y-8935
X-79477Y-8920
X-84375Y-1948
X-85462Y-2450
X-75350Y-5375
X-72850
X-8298Y2445
T02
X-40200Y-24775
X-111729Y-5803
X-91100Y-825
T04
X-94750Y-4225
X-93750
T05
X-127875Y-38375
X-128391Y-37800
X-120891
X-120375Y-38375
X-112875
X-113391Y-37800
X-120375Y-30875
X-120891Y-30300
X-104016
X-103500Y-30875
X-96938
X-97453Y-30300
X-93703
X-93188Y-30875
X-92766Y-37800
X-93703
X-93187Y-38375
X-92250
X-101625
X-102562
X-102141Y-37800
X-103078
X-84328
X-83391
X-83812Y-38375
X-82875
X-82875Y-30875
X-83391Y-30300
X-75891
X-75375Y-30875
X-74953Y-37800
X-74437Y-38375
X-67875Y-30875
X-68391Y-30300
X-60891
X-60375Y-30875
X-52875
X-53391Y-30300
X-45891
X-45375Y-30875
X-46816Y-37800
X-46300Y-38375
X-50987
X-51503Y-37800
X-37875Y-30875
X-38391Y-30300
X-30891
X-30375Y-30875
X-22875
X-23391Y-30300
X-15891
X-15375Y-30875
X-18703Y-37800
X-19641
X-19125Y-38375
X-18187
X-9750
X-8812
X-9328Y-37800
X-10266
X-7874Y-30875
X-8390Y-30300
X-3703
X-3187Y-30875
X562
X47Y-30300
Y-37800
X-891
X-375Y-38375
X562
Y-23375
X47Y-22800
X-891Y-22800
X-1828Y-22800
X-1312Y-23375
X-2859Y-22603
X-375Y-15875
X-891Y-15300
X-10266
X-9750Y-15875
X-12141Y-22800
X-11625Y-23375
X-19125
X-19641Y-22800
X-27141
X-26625Y-23375
X-24750Y-15875
X-25266Y-15300
X-17766
X-17250Y-15875
X-32250
X-32766Y-15300
X-40266
X-39750Y-15875
X-42141Y-22800
X-41625Y-23375
X-34125
X-34641Y-22800
X-49641
X-49125Y-23375
X-56625
X-57141Y-22800
X-54750Y-15875
X-55266Y-15300
X-47766
X-47250Y-15875
X-62250
X-62766Y-15300
X-70266
X-69750Y-15875
X-72141Y-22800
X-71625Y-23375
X-64125
X-64641Y-22800
X-79641
X-79125Y-23375
X-86625
X-87141Y-22800
X-84750Y-15875
X-85266Y-15300
X-77766
X-77250Y-15875
X-92250
X-92766Y-15300
X-94641Y-22800
X-94125Y-23375
X-98780
X-99296Y-22800
X-102457Y-21607
X-103032Y-22123
X-101625Y-15875
X-102141Y-15300
X-113391
X-112875Y-15875
X-120375
X-120891Y-15300
X-128391
X-127875Y-15875
Y-8375
X-128391Y-7800
X-127875Y1000
X-128391Y1575
X-120891
X-120375Y1000
X-112875
X-113391Y1575
Y-7800
X-112875Y-8375
X-120375
X-120891Y-7800
X-104016
X-103500Y-8375
X-99750
X-100266Y-7800
X-96516
X-96000Y-8375
X-94125Y1000
X-94641Y1575
X-104016
X-103500Y1000
X-86625
X-87141Y1575
X-79641
X-79125Y1000
X-81516Y-7800
X-81000Y-8375
X-88500
X-89016Y-7800
X-74016
X-73500Y-8375
X-66000
X-66516Y-7800
X-62250Y1000
X-62766Y1575
X-72141
X-71625Y1000
X-54750
X-55266Y1575
X-47766
X-47250Y1000
X-51516Y-7800
X-51000Y-8375
X-58500
X-59016Y-7800
X-44016
X-43500Y-8375
X-36000
X-36516Y-7800
X-29016
X-30375Y1000
X-30891Y1575
X-40266
X-39750Y1000
X-22875
X-23391Y1575
X-15891
X-15375Y1000
X-14016Y-7800
X-13500Y-8375
X-21000
X-21516Y-7800
X-28500Y-8375
X-6000
X-6516Y-7800
X984
X1500Y-8375
Y1000
X984Y1575
X-8391
X-7875Y1000
T07
X-101881Y2855
X-99605
T08
X-92650Y-4175
X-90650Y-4575
Y-3775
T09
X-130950Y-41825
X-131298Y1097
X1550Y2325
T10
X-131375Y-39375
X-127375
X-123875
Y-31875
X-119875
Y-39375
X-116375
X-112375
X-106062
X-105125
X-102062
X-101125
X-96687
X-95750
X-92687
X-91750
X-92688Y-31875
X-96438
X-96687
X-100437
X-103000
X-107000
X-86375
X-82375
X-78875
X-77937Y-39375
X-82375
X-83312
X-86375
X-87312
X-73937
X-74875Y-31875
X-71375
X-67375
X-63875
X-59875
X-56375
X-52375
X-48875
X-44875
X-45800Y-39375
X-49800
X-50487
X-54487
X-41375Y-31875
X-37375
X-33875
X-29875
X-26375
X-22375
X-18875
X-14875
X-17687Y-39375
X-18625
X-21687
X-22625
X-13250
X-12312
X-9250
X-8312
X-3875
X-2937
X125
X1063
Y-31875
X-2688
X-2937
X-6687
X-7374
X-11374
X-11125Y-24375
X-4812
X1063
X125Y-16875
X-3875
X-9250
X-13250
X-13000Y-9375
X-9500
X-5500
X-2000
X2000
X-17000
X-20500
X-24500
X-28000
X-28250Y-16875
X-24250
X-20750
X-16750
X-15125Y-24375
X-18625
X-22625
X-26125
X-30125
X-33625
X-37625
X-41125
X-39250Y-16875
X-35750
X-31750
X-32000Y-9375
X-35500
X-39500
X-43000
X-43250Y-16875
X-46750
X-50750
X-54250
X-58250
X-58000Y-9375
X-54500
X-50500
X-47000
X-48625Y-24375
X-45125
X-52625
X-56125
X-60125
X-63625
X-67625
X-71125
X-75125
X-73250Y-16875
X-69250
X-65750
X-61750
X-62000Y-9375
X-65500
X-69500
X-73000
X-77000
X-80500
X-84500
X-88000
X-88250Y-16875
X-84250
X-80750
X-76750
X-78625Y-24375
X-82625
X-86125
X-90125
X-93625
X-97625
X-98280
X-102280
X-104032Y-22623
Y-18623
X-105125Y-16875
X-101125
X-95750
X-91750
X-92000Y-9375
X-95500
X-99250
X-99500
X-103000
X-103250
X-107000
X-112375
X-116375
X-119875
Y-16875
X-116375
X-112375
X-123875
X-127375
X-131375
Y-9375
X-127375
X-123875
Y0
X-127375
X-131375
X-119875
X-116375
X-112375
X-107000
X-103000
X-97625
X-93625
X-90125
X-86125
X-82625
X-78625
X-75125
X-71125
X-65750
X-61750
X-58250
X-54250
X-50750
X-46750
X-43250
X-39250
X-33875
X-29875
X-26375
X-22375
X-18875
X-14875
X-11375
X-7375
X-2000
X2000
T11
X-12347Y-29021
X-92456Y-22505
T12
X-28115Y-42125
X-29987
X-67485
X-74987
X-93737Y-29125
X-95580Y-27125
X-104980
X-106782Y-25323
X-103138Y-29125
X-9388
X12
X-106782Y-15923
X-105950Y-6625
X-96550
T13
X-103138Y-35125
X-93737
X-100782Y-25323
X-74987Y-36125
X-67485
X-29987
X-28115
X-9388Y-35125
X12
X-95580Y-21125
X-104980
X-100782Y-15923
X-96550Y-12625
X-105950
T14
X-129375Y-39375
X-121875
X-114375
X-121875Y-31875
X-105000
X-98438
X-94688
X-94687Y-39375
X-93750
X-103125
X-104062
X-85312
X-84375
X-84375Y-31875
X-76875
X-75937Y-39375
X-69375Y-31875
X-61875
X-54375
X-46875
X-47800Y-39375
X-52487
X-39375Y-31875
X-31875
X-24375
X-16875
X-19687Y-39375
X-20625
X-11250
X-10312
X-1875
X-938
Y-31875
X-4688
X-9374
X-13125Y-24375
X-11250Y-16875
X-1875
X-938Y-24375
X-2812
X0Y-9375
X-7500
X-15000
X-22500
X-26250Y-16875
X-18750
X-20625Y-24375
X-28125
X-35625
X-43125
X-41250Y-16875
X-33750
X-37500Y-9375
X-30000
X-45000
X-52500
X-60000
X-56250Y-16875
X-48750
X-50625Y-24375
X-58125
X-65625
X-73125
X-71250Y-16875
X-63750
X-67500Y-9375
X-75000
X-82500
X-90000
X-86250Y-16875
X-78750
X-80625Y-24375
X-88125
X-95625
X-100280
X-104032Y-20623
X-103125Y-16875
X-101250Y-9375
X-105000
X-97500
X-93750Y-16875
X-114375
X-121875
Y-9375
X-114375
X-129375
Y-16875
Y0
X-121875
X-114375
X-105000
X-95625
X-88125
X-80625
X-73125
X-63750
X-56250
X-48750
X-41250
X-31875
X-24375
X-16875
X-9375
X0
T15
X-1875Y-26375
X-121875Y-2000
T16
X-125536Y-41540
X-71442Y-37190
X-6656Y-36599
X-6516Y-13903
X-48642Y-12859
X-125536Y-12820
M30
