G04*
G04 #@! TF.GenerationSoftware,Altium Limited,Altium Designer,23.6.0 (18)*
G04*
G04 Layer_Color=32896*
%FSLAX25Y25*%
%MOIN*%
G70*
G04*
G04 #@! TF.SameCoordinates,641307AF-980C-49FC-99E6-95A709EC4BFD*
G04*
G04*
G04 #@! TF.FilePolarity,Positive*
G04*
G01*
G75*
%ADD13C,0.00787*%
%ADD14C,0.00500*%
%ADD63C,0.01575*%
G36*
X-673439Y-333528D02*
X-675570D01*
X-675653D01*
X-675731D01*
X-675803Y-333534D01*
X-675870D01*
X-675925Y-333540D01*
X-675981D01*
X-676030Y-333545D01*
X-676075D01*
X-676142Y-333556D01*
X-676191Y-333562D01*
X-676219Y-333567D01*
X-676230D01*
X-676302Y-333584D01*
X-676364Y-333612D01*
X-676419Y-333645D01*
X-676469Y-333678D01*
X-676508Y-333712D01*
X-676536Y-333739D01*
X-676552Y-333762D01*
X-676558Y-333767D01*
X-676602Y-333834D01*
X-676635Y-333917D01*
X-676658Y-333995D01*
X-676674Y-334078D01*
X-676685Y-334150D01*
X-676691Y-334206D01*
Y-334261D01*
X-676685Y-334378D01*
X-676669Y-334477D01*
X-676647Y-334566D01*
X-676619Y-334644D01*
X-676597Y-334700D01*
X-676574Y-334744D01*
X-676558Y-334766D01*
X-676552Y-334777D01*
X-676497Y-334838D01*
X-676430Y-334888D01*
X-676369Y-334933D01*
X-676308Y-334960D01*
X-676253Y-334982D01*
X-676208Y-334999D01*
X-676180Y-335010D01*
X-676169D01*
X-676136Y-335016D01*
X-676103Y-335021D01*
X-676058D01*
X-676008Y-335027D01*
X-675903Y-335033D01*
X-675792D01*
X-675692Y-335038D01*
X-675647D01*
X-675603D01*
X-675570D01*
X-675548D01*
X-675531D01*
X-675525D01*
X-673439D01*
Y-335815D01*
X-675492D01*
X-675609D01*
X-675720Y-335809D01*
X-675825D01*
X-675919Y-335804D01*
X-676008Y-335798D01*
X-676086Y-335793D01*
X-676158Y-335787D01*
X-676225Y-335776D01*
X-676280Y-335771D01*
X-676330Y-335765D01*
X-676375Y-335759D01*
X-676408Y-335754D01*
X-676436Y-335748D01*
X-676452D01*
X-676463Y-335743D01*
X-676469D01*
X-676552Y-335715D01*
X-676630Y-335687D01*
X-676702Y-335648D01*
X-676763Y-335615D01*
X-676819Y-335582D01*
X-676863Y-335554D01*
X-676885Y-335532D01*
X-676896Y-335526D01*
X-676968Y-335460D01*
X-677035Y-335388D01*
X-677091Y-335310D01*
X-677141Y-335238D01*
X-677179Y-335177D01*
X-677207Y-335121D01*
X-677224Y-335088D01*
X-677229Y-335082D01*
Y-335077D01*
X-677251Y-335021D01*
X-677268Y-334960D01*
X-677301Y-334822D01*
X-677324Y-334683D01*
X-677335Y-334550D01*
X-677340Y-334489D01*
X-677346Y-334427D01*
Y-334378D01*
X-677351Y-334328D01*
Y-334239D01*
X-677346Y-334078D01*
X-677335Y-333934D01*
X-677313Y-333806D01*
X-677290Y-333700D01*
X-677285Y-333656D01*
X-677274Y-333612D01*
X-677263Y-333578D01*
X-677251Y-333551D01*
X-677246Y-333528D01*
X-677240Y-333512D01*
X-677235Y-333506D01*
Y-333501D01*
X-677190Y-333401D01*
X-677135Y-333312D01*
X-677085Y-333234D01*
X-677035Y-333168D01*
X-676991Y-333118D01*
X-676957Y-333079D01*
X-676935Y-333057D01*
X-676924Y-333051D01*
X-676846Y-332990D01*
X-676763Y-332940D01*
X-676685Y-332901D01*
X-676608Y-332868D01*
X-676541Y-332846D01*
X-676486Y-332829D01*
X-676469Y-332824D01*
X-676452D01*
X-676447Y-332818D01*
X-676441D01*
X-676380Y-332807D01*
X-676313Y-332796D01*
X-676241Y-332785D01*
X-676169Y-332779D01*
X-676003Y-332768D01*
X-675842Y-332757D01*
X-675770D01*
X-675698D01*
X-675631Y-332751D01*
X-675575D01*
X-675531D01*
X-675492D01*
X-675470D01*
X-675464D01*
X-673439D01*
Y-333528D01*
D02*
G37*
G36*
X-675886Y-336365D02*
X-675786Y-336376D01*
X-675692Y-336392D01*
X-675603Y-336414D01*
X-675525Y-336437D01*
X-675448Y-336470D01*
X-675376Y-336498D01*
X-675315Y-336531D01*
X-675259Y-336564D01*
X-675209Y-336592D01*
X-675165Y-336625D01*
X-675131Y-336648D01*
X-675104Y-336670D01*
X-675081Y-336686D01*
X-675070Y-336698D01*
X-675065Y-336703D01*
X-675004Y-336770D01*
X-674948Y-336836D01*
X-674898Y-336908D01*
X-674854Y-336981D01*
X-674821Y-337047D01*
X-674793Y-337119D01*
X-674748Y-337247D01*
X-674732Y-337308D01*
X-674721Y-337364D01*
X-674715Y-337413D01*
X-674710Y-337452D01*
X-674704Y-337486D01*
Y-337536D01*
X-674710Y-337630D01*
X-674726Y-337724D01*
X-674743Y-337807D01*
X-674765Y-337885D01*
X-674793Y-337946D01*
X-674810Y-337996D01*
X-674826Y-338030D01*
X-674832Y-338035D01*
Y-338041D01*
X-674177Y-337924D01*
Y-336531D01*
X-673489D01*
Y-338479D01*
X-675492Y-338856D01*
X-675575Y-338263D01*
X-675525Y-338213D01*
X-675481Y-338163D01*
X-675442Y-338113D01*
X-675409Y-338063D01*
X-675359Y-337968D01*
X-675326Y-337880D01*
X-675309Y-337802D01*
X-675298Y-337746D01*
X-675292Y-337724D01*
Y-337691D01*
X-675298Y-337602D01*
X-675320Y-337519D01*
X-675348Y-337447D01*
X-675381Y-337386D01*
X-675420Y-337341D01*
X-675448Y-337302D01*
X-675470Y-337280D01*
X-675476Y-337275D01*
X-675548Y-337219D01*
X-675631Y-337180D01*
X-675720Y-337153D01*
X-675808Y-337136D01*
X-675886Y-337119D01*
X-675947Y-337114D01*
X-675975D01*
X-675992D01*
X-676003D01*
X-676008D01*
X-676142Y-337119D01*
X-676258Y-337136D01*
X-676352Y-337164D01*
X-676430Y-337191D01*
X-676497Y-337225D01*
X-676541Y-337247D01*
X-676563Y-337269D01*
X-676574Y-337275D01*
X-676635Y-337336D01*
X-676685Y-337402D01*
X-676719Y-337469D01*
X-676741Y-337530D01*
X-676752Y-337585D01*
X-676757Y-337630D01*
X-676763Y-337658D01*
Y-337669D01*
X-676757Y-337741D01*
X-676741Y-337813D01*
X-676719Y-337874D01*
X-676691Y-337924D01*
X-676663Y-337968D01*
X-676641Y-338002D01*
X-676624Y-338024D01*
X-676619Y-338030D01*
X-676558Y-338079D01*
X-676497Y-338124D01*
X-676430Y-338157D01*
X-676369Y-338179D01*
X-676313Y-338196D01*
X-676264Y-338207D01*
X-676236Y-338213D01*
X-676225D01*
X-676302Y-338945D01*
X-676391Y-338929D01*
X-676475Y-338912D01*
X-676624Y-338856D01*
X-676757Y-338795D01*
X-676813Y-338762D01*
X-676868Y-338723D01*
X-676913Y-338690D01*
X-676952Y-338662D01*
X-676985Y-338629D01*
X-677018Y-338607D01*
X-677041Y-338584D01*
X-677057Y-338568D01*
X-677063Y-338557D01*
X-677068Y-338551D01*
X-677118Y-338485D01*
X-677163Y-338418D01*
X-677202Y-338346D01*
X-677229Y-338274D01*
X-677285Y-338124D01*
X-677318Y-337991D01*
X-677329Y-337924D01*
X-677335Y-337868D01*
X-677340Y-337813D01*
X-677346Y-337769D01*
X-677351Y-337730D01*
Y-337680D01*
X-677346Y-337558D01*
X-677329Y-337441D01*
X-677307Y-337336D01*
X-677274Y-337236D01*
X-677235Y-337141D01*
X-677190Y-337058D01*
X-677146Y-336981D01*
X-677096Y-336908D01*
X-677052Y-336847D01*
X-677007Y-336792D01*
X-676963Y-336742D01*
X-676924Y-336703D01*
X-676891Y-336675D01*
X-676868Y-336653D01*
X-676852Y-336642D01*
X-676846Y-336636D01*
X-676774Y-336586D01*
X-676702Y-336542D01*
X-676630Y-336509D01*
X-676552Y-336475D01*
X-676408Y-336425D01*
X-676275Y-336392D01*
X-676219Y-336381D01*
X-676164Y-336376D01*
X-676114Y-336365D01*
X-676069D01*
X-676036Y-336359D01*
X-676014D01*
X-675997D01*
X-675992D01*
X-675886Y-336365D01*
D02*
G37*
G36*
X-674410Y-339461D02*
X-674327Y-339473D01*
X-674249Y-339484D01*
X-674177Y-339506D01*
X-674049Y-339561D01*
X-673938Y-339617D01*
X-673888Y-339650D01*
X-673849Y-339678D01*
X-673810Y-339706D01*
X-673783Y-339733D01*
X-673761Y-339756D01*
X-673738Y-339767D01*
X-673733Y-339778D01*
X-673727Y-339783D01*
X-673672Y-339844D01*
X-673622Y-339916D01*
X-673583Y-339983D01*
X-673550Y-340061D01*
X-673494Y-340205D01*
X-673455Y-340349D01*
X-673444Y-340416D01*
X-673433Y-340477D01*
X-673427Y-340532D01*
X-673422Y-340582D01*
X-673416Y-340621D01*
Y-340677D01*
X-673422Y-340771D01*
X-673427Y-340860D01*
X-673455Y-341032D01*
X-673500Y-341176D01*
X-673522Y-341243D01*
X-673550Y-341304D01*
X-673572Y-341359D01*
X-673600Y-341404D01*
X-673622Y-341448D01*
X-673638Y-341482D01*
X-673661Y-341509D01*
X-673672Y-341526D01*
X-673677Y-341537D01*
X-673683Y-341543D01*
X-673738Y-341604D01*
X-673794Y-341659D01*
X-673860Y-341709D01*
X-673933Y-341754D01*
X-674077Y-341820D01*
X-674216Y-341876D01*
X-674288Y-341892D01*
X-674349Y-341909D01*
X-674404Y-341926D01*
X-674454Y-341931D01*
X-674499Y-341942D01*
X-674526D01*
X-674549Y-341948D01*
X-674554D01*
X-674626Y-341215D01*
X-674515Y-341204D01*
X-674421Y-341182D01*
X-674338Y-341160D01*
X-674277Y-341132D01*
X-674227Y-341110D01*
X-674193Y-341088D01*
X-674171Y-341071D01*
X-674166Y-341065D01*
X-674121Y-341010D01*
X-674088Y-340949D01*
X-674060Y-340888D01*
X-674044Y-340827D01*
X-674032Y-340777D01*
X-674027Y-340732D01*
Y-340693D01*
X-674032Y-340610D01*
X-674049Y-340538D01*
X-674071Y-340477D01*
X-674093Y-340422D01*
X-674116Y-340383D01*
X-674138Y-340349D01*
X-674155Y-340333D01*
X-674160Y-340327D01*
X-674216Y-340283D01*
X-674277Y-340249D01*
X-674338Y-340227D01*
X-674399Y-340211D01*
X-674454Y-340199D01*
X-674504Y-340194D01*
X-674532D01*
X-674538D01*
X-674543D01*
X-674626Y-340199D01*
X-674704Y-340216D01*
X-674782Y-340244D01*
X-674848Y-340272D01*
X-674909Y-340299D01*
X-674954Y-340327D01*
X-674981Y-340344D01*
X-674993Y-340349D01*
X-675026Y-340372D01*
X-675065Y-340405D01*
X-675115Y-340449D01*
X-675159Y-340494D01*
X-675265Y-340594D01*
X-675370Y-340693D01*
X-675470Y-340793D01*
X-675514Y-340838D01*
X-675548Y-340882D01*
X-675581Y-340915D01*
X-675603Y-340938D01*
X-675620Y-340954D01*
X-675625Y-340960D01*
X-675731Y-341071D01*
X-675831Y-341171D01*
X-675925Y-341265D01*
X-676008Y-341348D01*
X-676091Y-341426D01*
X-676169Y-341493D01*
X-676236Y-341554D01*
X-676302Y-341604D01*
X-676358Y-341648D01*
X-676408Y-341687D01*
X-676447Y-341720D01*
X-676486Y-341742D01*
X-676508Y-341765D01*
X-676530Y-341776D01*
X-676541Y-341787D01*
X-676547D01*
X-676674Y-341859D01*
X-676807Y-341915D01*
X-676930Y-341959D01*
X-677041Y-341992D01*
X-677141Y-342014D01*
X-677179Y-342020D01*
X-677213Y-342025D01*
X-677240Y-342031D01*
X-677263Y-342037D01*
X-677274D01*
X-677279D01*
Y-339456D01*
X-676597D01*
Y-340921D01*
X-676524Y-340877D01*
X-676463Y-340827D01*
X-676436Y-340805D01*
X-676413Y-340788D01*
X-676402Y-340777D01*
X-676397Y-340771D01*
X-676375Y-340749D01*
X-676347Y-340727D01*
X-676286Y-340660D01*
X-676214Y-340588D01*
X-676142Y-340516D01*
X-676075Y-340444D01*
X-676019Y-340383D01*
X-675997Y-340360D01*
X-675981Y-340344D01*
X-675975Y-340333D01*
X-675969Y-340327D01*
X-675853Y-340205D01*
X-675759Y-340105D01*
X-675670Y-340022D01*
X-675603Y-339955D01*
X-675548Y-339905D01*
X-675509Y-339872D01*
X-675481Y-339850D01*
X-675476Y-339844D01*
X-675381Y-339772D01*
X-675292Y-339711D01*
X-675209Y-339661D01*
X-675137Y-339622D01*
X-675076Y-339589D01*
X-675026Y-339567D01*
X-674998Y-339556D01*
X-674987Y-339550D01*
X-674898Y-339517D01*
X-674810Y-339495D01*
X-674726Y-339478D01*
X-674649Y-339467D01*
X-674587Y-339461D01*
X-674538Y-339456D01*
X-674504D01*
X-674493D01*
X-674410Y-339461D01*
D02*
G37*
G36*
X-676541Y-343280D02*
X-677279D01*
Y-342542D01*
X-676541D01*
Y-343280D01*
D02*
G37*
G36*
X-675942Y-343857D02*
X-675847Y-343868D01*
X-675753Y-343885D01*
X-675670Y-343901D01*
X-675587Y-343929D01*
X-675514Y-343957D01*
X-675442Y-343985D01*
X-675381Y-344018D01*
X-675326Y-344051D01*
X-675276Y-344079D01*
X-675237Y-344107D01*
X-675198Y-344134D01*
X-675170Y-344151D01*
X-675154Y-344168D01*
X-675142Y-344179D01*
X-675137Y-344184D01*
X-675076Y-344246D01*
X-675020Y-344312D01*
X-674970Y-344379D01*
X-674932Y-344445D01*
X-674898Y-344512D01*
X-674870Y-344579D01*
X-674826Y-344701D01*
X-674810Y-344756D01*
X-674798Y-344812D01*
X-674793Y-344856D01*
X-674787Y-344895D01*
X-674782Y-344928D01*
Y-344972D01*
X-674787Y-345050D01*
X-674798Y-345122D01*
X-674810Y-345189D01*
X-674832Y-345256D01*
X-674887Y-345372D01*
X-674943Y-345472D01*
X-675004Y-345550D01*
X-675032Y-345583D01*
X-675059Y-345611D01*
X-675081Y-345633D01*
X-675093Y-345650D01*
X-675104Y-345655D01*
X-675109Y-345661D01*
X-674993Y-345650D01*
X-674882Y-345638D01*
X-674782Y-345627D01*
X-674693Y-345611D01*
X-674615Y-345594D01*
X-674543Y-345578D01*
X-674482Y-345561D01*
X-674427Y-345539D01*
X-674377Y-345522D01*
X-674338Y-345511D01*
X-674304Y-345494D01*
X-674282Y-345483D01*
X-674260Y-345472D01*
X-674249Y-345461D01*
X-674238Y-345455D01*
X-674166Y-345394D01*
X-674116Y-345328D01*
X-674077Y-345261D01*
X-674055Y-345200D01*
X-674038Y-345145D01*
X-674032Y-345100D01*
X-674027Y-345072D01*
Y-345061D01*
X-674032Y-345000D01*
X-674044Y-344939D01*
X-674060Y-344889D01*
X-674077Y-344850D01*
X-674099Y-344817D01*
X-674116Y-344795D01*
X-674127Y-344778D01*
X-674132Y-344773D01*
X-674177Y-344734D01*
X-674227Y-344706D01*
X-674282Y-344678D01*
X-674332Y-344662D01*
X-674382Y-344651D01*
X-674421Y-344639D01*
X-674443Y-344634D01*
X-674454D01*
X-674377Y-343924D01*
X-674210Y-343962D01*
X-674071Y-344018D01*
X-673949Y-344079D01*
X-673844Y-344140D01*
X-673766Y-344201D01*
X-673738Y-344223D01*
X-673711Y-344251D01*
X-673694Y-344268D01*
X-673677Y-344284D01*
X-673666Y-344290D01*
Y-344295D01*
X-673622Y-344351D01*
X-673583Y-344406D01*
X-673522Y-344529D01*
X-673478Y-344651D01*
X-673450Y-344762D01*
X-673427Y-344862D01*
X-673422Y-344906D01*
Y-344945D01*
X-673416Y-344972D01*
Y-345017D01*
X-673422Y-345133D01*
X-673439Y-345239D01*
X-673461Y-345344D01*
X-673489Y-345439D01*
X-673527Y-345528D01*
X-673566Y-345616D01*
X-673611Y-345689D01*
X-673650Y-345761D01*
X-673694Y-345822D01*
X-673738Y-345877D01*
X-673777Y-345922D01*
X-673816Y-345960D01*
X-673844Y-345994D01*
X-673866Y-346016D01*
X-673883Y-346027D01*
X-673888Y-346033D01*
X-673982Y-346099D01*
X-674088Y-346160D01*
X-674204Y-346210D01*
X-674321Y-346255D01*
X-674449Y-346293D01*
X-674576Y-346327D01*
X-674704Y-346355D01*
X-674826Y-346371D01*
X-674943Y-346388D01*
X-675054Y-346399D01*
X-675154Y-346410D01*
X-675242Y-346415D01*
X-675315Y-346421D01*
X-675370D01*
X-675387D01*
X-675403D01*
X-675409D01*
X-675414D01*
X-675603Y-346415D01*
X-675775Y-346404D01*
X-675936Y-346388D01*
X-676080Y-346360D01*
X-676219Y-346332D01*
X-676341Y-346304D01*
X-676447Y-346271D01*
X-676547Y-346232D01*
X-676630Y-346199D01*
X-676702Y-346166D01*
X-676763Y-346138D01*
X-676813Y-346105D01*
X-676852Y-346082D01*
X-676880Y-346066D01*
X-676896Y-346055D01*
X-676902Y-346049D01*
X-676979Y-345977D01*
X-677052Y-345899D01*
X-677113Y-345822D01*
X-677163Y-345738D01*
X-677207Y-345661D01*
X-677240Y-345578D01*
X-677274Y-345500D01*
X-677296Y-345428D01*
X-677313Y-345356D01*
X-677329Y-345294D01*
X-677335Y-345233D01*
X-677346Y-345183D01*
Y-345145D01*
X-677351Y-345117D01*
Y-345089D01*
X-677346Y-344989D01*
X-677335Y-344895D01*
X-677318Y-344806D01*
X-677296Y-344723D01*
X-677268Y-344639D01*
X-677240Y-344567D01*
X-677207Y-344501D01*
X-677174Y-344440D01*
X-677141Y-344384D01*
X-677107Y-344340D01*
X-677079Y-344295D01*
X-677052Y-344262D01*
X-677030Y-344234D01*
X-677013Y-344218D01*
X-677002Y-344207D01*
X-676996Y-344201D01*
X-676930Y-344140D01*
X-676852Y-344085D01*
X-676774Y-344040D01*
X-676696Y-344001D01*
X-676619Y-343962D01*
X-676541Y-343935D01*
X-676386Y-343896D01*
X-676319Y-343879D01*
X-676253Y-343868D01*
X-676197Y-343863D01*
X-676147Y-343857D01*
X-676103Y-343851D01*
X-676075D01*
X-676053D01*
X-676047D01*
X-675942Y-343857D01*
D02*
G37*
G36*
X-675065Y-351028D02*
X-675698D01*
X-676841Y-348391D01*
X-676097D01*
X-675376Y-350234D01*
X-674671Y-348391D01*
X-673921D01*
X-675065Y-351028D01*
D02*
G37*
G36*
X-747439Y-340993D02*
X-749570D01*
X-749653D01*
X-749731D01*
X-749803Y-340999D01*
X-749869D01*
X-749925Y-341004D01*
X-749980D01*
X-750031Y-341010D01*
X-750075D01*
X-750141Y-341021D01*
X-750191Y-341026D01*
X-750219Y-341032D01*
X-750230D01*
X-750302Y-341049D01*
X-750363Y-341076D01*
X-750419Y-341110D01*
X-750469Y-341143D01*
X-750508Y-341176D01*
X-750535Y-341204D01*
X-750552Y-341226D01*
X-750558Y-341232D01*
X-750602Y-341298D01*
X-750635Y-341382D01*
X-750658Y-341459D01*
X-750674Y-341543D01*
X-750685Y-341615D01*
X-750691Y-341670D01*
Y-341726D01*
X-750685Y-341842D01*
X-750669Y-341942D01*
X-750646Y-342031D01*
X-750619Y-342109D01*
X-750597Y-342164D01*
X-750574Y-342209D01*
X-750558Y-342231D01*
X-750552Y-342242D01*
X-750497Y-342303D01*
X-750430Y-342353D01*
X-750369Y-342397D01*
X-750308Y-342425D01*
X-750252Y-342447D01*
X-750208Y-342464D01*
X-750180Y-342475D01*
X-750169D01*
X-750136Y-342481D01*
X-750103Y-342486D01*
X-750058D01*
X-750008Y-342492D01*
X-749903Y-342497D01*
X-749792D01*
X-749692Y-342503D01*
X-749648D01*
X-749603D01*
X-749570D01*
X-749548D01*
X-749531D01*
X-749525D01*
X-747439D01*
Y-343280D01*
X-749492D01*
X-749609D01*
X-749720Y-343274D01*
X-749825D01*
X-749920Y-343269D01*
X-750008Y-343263D01*
X-750086Y-343258D01*
X-750158Y-343252D01*
X-750225Y-343241D01*
X-750280Y-343235D01*
X-750330Y-343230D01*
X-750375Y-343224D01*
X-750408Y-343219D01*
X-750436Y-343213D01*
X-750452D01*
X-750463Y-343208D01*
X-750469D01*
X-750552Y-343180D01*
X-750630Y-343152D01*
X-750702Y-343113D01*
X-750763Y-343080D01*
X-750819Y-343047D01*
X-750863Y-343019D01*
X-750885Y-342997D01*
X-750896Y-342991D01*
X-750968Y-342925D01*
X-751035Y-342852D01*
X-751090Y-342775D01*
X-751140Y-342703D01*
X-751179Y-342641D01*
X-751207Y-342586D01*
X-751224Y-342553D01*
X-751229Y-342547D01*
Y-342542D01*
X-751252Y-342486D01*
X-751268Y-342425D01*
X-751301Y-342286D01*
X-751324Y-342148D01*
X-751335Y-342014D01*
X-751340Y-341953D01*
X-751346Y-341892D01*
Y-341842D01*
X-751351Y-341792D01*
Y-341704D01*
X-751346Y-341543D01*
X-751335Y-341398D01*
X-751312Y-341271D01*
X-751290Y-341165D01*
X-751285Y-341121D01*
X-751274Y-341076D01*
X-751263Y-341043D01*
X-751252Y-341015D01*
X-751246Y-340993D01*
X-751240Y-340977D01*
X-751235Y-340971D01*
Y-340965D01*
X-751190Y-340865D01*
X-751135Y-340777D01*
X-751085Y-340699D01*
X-751035Y-340632D01*
X-750991Y-340582D01*
X-750957Y-340544D01*
X-750935Y-340521D01*
X-750924Y-340516D01*
X-750846Y-340455D01*
X-750763Y-340405D01*
X-750685Y-340366D01*
X-750608Y-340333D01*
X-750541Y-340311D01*
X-750486Y-340294D01*
X-750469Y-340288D01*
X-750452D01*
X-750447Y-340283D01*
X-750441D01*
X-750380Y-340272D01*
X-750314Y-340261D01*
X-750241Y-340249D01*
X-750169Y-340244D01*
X-750003Y-340233D01*
X-749842Y-340222D01*
X-749770D01*
X-749697D01*
X-749631Y-340216D01*
X-749575D01*
X-749531D01*
X-749492D01*
X-749470D01*
X-749464D01*
X-747439D01*
Y-340993D01*
D02*
G37*
G36*
X-747489Y-346421D02*
X-748171D01*
Y-344750D01*
X-748421Y-344934D01*
X-748682Y-345095D01*
X-748804Y-345172D01*
X-748932Y-345239D01*
X-749048Y-345300D01*
X-749159Y-345356D01*
X-749265Y-345405D01*
X-749359Y-345450D01*
X-749448Y-345489D01*
X-749520Y-345522D01*
X-749575Y-345544D01*
X-749620Y-345561D01*
X-749648Y-345572D01*
X-749659Y-345578D01*
X-749814Y-345633D01*
X-749964Y-345683D01*
X-750114Y-345722D01*
X-750258Y-345761D01*
X-750402Y-345788D01*
X-750535Y-345816D01*
X-750663Y-345838D01*
X-750780Y-345855D01*
X-750885Y-345872D01*
X-750985Y-345883D01*
X-751068Y-345894D01*
X-751140Y-345899D01*
X-751201D01*
X-751246Y-345905D01*
X-751268D01*
X-751279D01*
Y-345195D01*
X-751085Y-345189D01*
X-750885Y-345172D01*
X-750691Y-345145D01*
X-750602Y-345133D01*
X-750513Y-345117D01*
X-750436Y-345100D01*
X-750358Y-345083D01*
X-750297Y-345072D01*
X-750241Y-345061D01*
X-750191Y-345050D01*
X-750158Y-345039D01*
X-750136Y-345034D01*
X-750130D01*
X-749892Y-344961D01*
X-749664Y-344884D01*
X-749559Y-344845D01*
X-749459Y-344800D01*
X-749365Y-344762D01*
X-749276Y-344723D01*
X-749198Y-344684D01*
X-749126Y-344651D01*
X-749059Y-344617D01*
X-749009Y-344595D01*
X-748965Y-344573D01*
X-748937Y-344556D01*
X-748915Y-344545D01*
X-748909Y-344540D01*
X-748804Y-344479D01*
X-748704Y-344418D01*
X-748615Y-344362D01*
X-748526Y-344306D01*
X-748449Y-344251D01*
X-748377Y-344196D01*
X-748310Y-344146D01*
X-748249Y-344101D01*
X-748193Y-344057D01*
X-748149Y-344018D01*
X-748110Y-343985D01*
X-748077Y-343957D01*
X-748055Y-343935D01*
X-748038Y-343918D01*
X-748027Y-343907D01*
X-748021Y-343901D01*
X-747489D01*
Y-346421D01*
D02*
G37*
G36*
X-749065Y-351028D02*
X-749697D01*
X-750841Y-348391D01*
X-750097D01*
X-749376Y-350234D01*
X-748671Y-348391D01*
X-747922D01*
X-749065Y-351028D01*
D02*
G37*
G36*
X-278939Y-334028D02*
X-281070D01*
X-281153D01*
X-281231D01*
X-281303Y-334034D01*
X-281369D01*
X-281425Y-334039D01*
X-281481D01*
X-281530Y-334045D01*
X-281575D01*
X-281642Y-334056D01*
X-281691Y-334062D01*
X-281719Y-334067D01*
X-281730D01*
X-281802Y-334084D01*
X-281863Y-334112D01*
X-281919Y-334145D01*
X-281969Y-334178D01*
X-282008Y-334212D01*
X-282035Y-334239D01*
X-282052Y-334261D01*
X-282058Y-334267D01*
X-282102Y-334334D01*
X-282135Y-334417D01*
X-282158Y-334495D01*
X-282174Y-334578D01*
X-282185Y-334650D01*
X-282191Y-334705D01*
Y-334761D01*
X-282185Y-334878D01*
X-282169Y-334978D01*
X-282147Y-335066D01*
X-282119Y-335144D01*
X-282097Y-335199D01*
X-282074Y-335244D01*
X-282058Y-335266D01*
X-282052Y-335277D01*
X-281997Y-335338D01*
X-281930Y-335388D01*
X-281869Y-335433D01*
X-281808Y-335460D01*
X-281752Y-335483D01*
X-281708Y-335499D01*
X-281680Y-335510D01*
X-281669D01*
X-281636Y-335516D01*
X-281603Y-335521D01*
X-281558D01*
X-281508Y-335527D01*
X-281403Y-335532D01*
X-281292D01*
X-281192Y-335538D01*
X-281148D01*
X-281103D01*
X-281070D01*
X-281048D01*
X-281031D01*
X-281025D01*
X-278939D01*
Y-336315D01*
X-280992D01*
X-281109D01*
X-281220Y-336310D01*
X-281325D01*
X-281419Y-336304D01*
X-281508Y-336298D01*
X-281586Y-336293D01*
X-281658Y-336287D01*
X-281725Y-336276D01*
X-281780Y-336271D01*
X-281830Y-336265D01*
X-281875Y-336260D01*
X-281908Y-336254D01*
X-281936Y-336248D01*
X-281952D01*
X-281963Y-336243D01*
X-281969D01*
X-282052Y-336215D01*
X-282130Y-336187D01*
X-282202Y-336149D01*
X-282263Y-336115D01*
X-282319Y-336082D01*
X-282363Y-336054D01*
X-282385Y-336032D01*
X-282396Y-336026D01*
X-282468Y-335960D01*
X-282535Y-335888D01*
X-282591Y-335810D01*
X-282641Y-335738D01*
X-282679Y-335677D01*
X-282707Y-335621D01*
X-282724Y-335588D01*
X-282729Y-335582D01*
Y-335577D01*
X-282751Y-335521D01*
X-282768Y-335460D01*
X-282801Y-335322D01*
X-282824Y-335183D01*
X-282835Y-335050D01*
X-282840Y-334989D01*
X-282846Y-334928D01*
Y-334878D01*
X-282851Y-334828D01*
Y-334739D01*
X-282846Y-334578D01*
X-282835Y-334434D01*
X-282812Y-334306D01*
X-282790Y-334201D01*
X-282785Y-334156D01*
X-282774Y-334112D01*
X-282763Y-334078D01*
X-282751Y-334051D01*
X-282746Y-334028D01*
X-282740Y-334012D01*
X-282735Y-334006D01*
Y-334001D01*
X-282690Y-333901D01*
X-282635Y-333812D01*
X-282585Y-333734D01*
X-282535Y-333668D01*
X-282491Y-333618D01*
X-282457Y-333579D01*
X-282435Y-333557D01*
X-282424Y-333551D01*
X-282346Y-333490D01*
X-282263Y-333440D01*
X-282185Y-333401D01*
X-282108Y-333368D01*
X-282041Y-333346D01*
X-281986Y-333329D01*
X-281969Y-333324D01*
X-281952D01*
X-281947Y-333318D01*
X-281941D01*
X-281880Y-333307D01*
X-281814Y-333296D01*
X-281741Y-333285D01*
X-281669Y-333279D01*
X-281503Y-333268D01*
X-281342Y-333257D01*
X-281270D01*
X-281198D01*
X-281131Y-333251D01*
X-281075D01*
X-281031D01*
X-280992D01*
X-280970D01*
X-280964D01*
X-278939D01*
Y-334028D01*
D02*
G37*
G36*
X-281386Y-336864D02*
X-281286Y-336876D01*
X-281192Y-336892D01*
X-281103Y-336914D01*
X-281025Y-336937D01*
X-280948Y-336970D01*
X-280876Y-336998D01*
X-280815Y-337031D01*
X-280759Y-337064D01*
X-280709Y-337092D01*
X-280665Y-337125D01*
X-280631Y-337147D01*
X-280604Y-337170D01*
X-280581Y-337186D01*
X-280570Y-337197D01*
X-280565Y-337203D01*
X-280504Y-337270D01*
X-280448Y-337336D01*
X-280398Y-337408D01*
X-280354Y-337480D01*
X-280321Y-337547D01*
X-280293Y-337619D01*
X-280248Y-337747D01*
X-280232Y-337808D01*
X-280221Y-337863D01*
X-280215Y-337913D01*
X-280210Y-337952D01*
X-280204Y-337986D01*
Y-338035D01*
X-280210Y-338130D01*
X-280226Y-338224D01*
X-280243Y-338307D01*
X-280265Y-338385D01*
X-280293Y-338446D01*
X-280310Y-338496D01*
X-280326Y-338529D01*
X-280332Y-338535D01*
Y-338541D01*
X-279677Y-338424D01*
Y-337031D01*
X-278989D01*
Y-338979D01*
X-280992Y-339356D01*
X-281075Y-338763D01*
X-281025Y-338713D01*
X-280981Y-338663D01*
X-280942Y-338613D01*
X-280909Y-338563D01*
X-280859Y-338468D01*
X-280826Y-338380D01*
X-280809Y-338302D01*
X-280798Y-338246D01*
X-280792Y-338224D01*
Y-338191D01*
X-280798Y-338102D01*
X-280820Y-338019D01*
X-280848Y-337947D01*
X-280881Y-337886D01*
X-280920Y-337841D01*
X-280948Y-337802D01*
X-280970Y-337780D01*
X-280976Y-337775D01*
X-281048Y-337719D01*
X-281131Y-337680D01*
X-281220Y-337653D01*
X-281309Y-337636D01*
X-281386Y-337619D01*
X-281447Y-337614D01*
X-281475D01*
X-281492D01*
X-281503D01*
X-281508D01*
X-281642Y-337619D01*
X-281758Y-337636D01*
X-281852Y-337664D01*
X-281930Y-337691D01*
X-281997Y-337725D01*
X-282041Y-337747D01*
X-282063Y-337769D01*
X-282074Y-337775D01*
X-282135Y-337836D01*
X-282185Y-337902D01*
X-282219Y-337969D01*
X-282241Y-338030D01*
X-282252Y-338086D01*
X-282258Y-338130D01*
X-282263Y-338158D01*
Y-338169D01*
X-282258Y-338241D01*
X-282241Y-338313D01*
X-282219Y-338374D01*
X-282191Y-338424D01*
X-282163Y-338468D01*
X-282141Y-338502D01*
X-282124Y-338524D01*
X-282119Y-338529D01*
X-282058Y-338579D01*
X-281997Y-338624D01*
X-281930Y-338657D01*
X-281869Y-338679D01*
X-281814Y-338696D01*
X-281764Y-338707D01*
X-281736Y-338713D01*
X-281725D01*
X-281802Y-339445D01*
X-281891Y-339429D01*
X-281975Y-339412D01*
X-282124Y-339356D01*
X-282258Y-339295D01*
X-282313Y-339262D01*
X-282368Y-339223D01*
X-282413Y-339190D01*
X-282452Y-339162D01*
X-282485Y-339129D01*
X-282518Y-339107D01*
X-282541Y-339085D01*
X-282557Y-339068D01*
X-282563Y-339057D01*
X-282568Y-339051D01*
X-282618Y-338985D01*
X-282663Y-338918D01*
X-282701Y-338846D01*
X-282729Y-338774D01*
X-282785Y-338624D01*
X-282818Y-338491D01*
X-282829Y-338424D01*
X-282835Y-338369D01*
X-282840Y-338313D01*
X-282846Y-338269D01*
X-282851Y-338230D01*
Y-338180D01*
X-282846Y-338058D01*
X-282829Y-337941D01*
X-282807Y-337836D01*
X-282774Y-337736D01*
X-282735Y-337642D01*
X-282690Y-337558D01*
X-282646Y-337480D01*
X-282596Y-337408D01*
X-282552Y-337347D01*
X-282507Y-337292D01*
X-282463Y-337242D01*
X-282424Y-337203D01*
X-282391Y-337175D01*
X-282368Y-337153D01*
X-282352Y-337142D01*
X-282346Y-337136D01*
X-282274Y-337087D01*
X-282202Y-337042D01*
X-282130Y-337009D01*
X-282052Y-336976D01*
X-281908Y-336926D01*
X-281775Y-336892D01*
X-281719Y-336881D01*
X-281664Y-336876D01*
X-281614Y-336864D01*
X-281569D01*
X-281536Y-336859D01*
X-281514D01*
X-281497D01*
X-281492D01*
X-281386Y-336864D01*
D02*
G37*
G36*
X-279910Y-339961D02*
X-279827Y-339972D01*
X-279749Y-339984D01*
X-279677Y-340006D01*
X-279549Y-340061D01*
X-279438Y-340117D01*
X-279388Y-340150D01*
X-279349Y-340178D01*
X-279310Y-340206D01*
X-279283Y-340233D01*
X-279260Y-340255D01*
X-279238Y-340267D01*
X-279233Y-340278D01*
X-279227Y-340283D01*
X-279172Y-340344D01*
X-279122Y-340417D01*
X-279083Y-340483D01*
X-279050Y-340561D01*
X-278994Y-340705D01*
X-278955Y-340849D01*
X-278944Y-340916D01*
X-278933Y-340977D01*
X-278927Y-341033D01*
X-278922Y-341083D01*
X-278916Y-341121D01*
Y-341177D01*
X-278922Y-341271D01*
X-278927Y-341360D01*
X-278955Y-341532D01*
X-279000Y-341676D01*
X-279022Y-341743D01*
X-279050Y-341804D01*
X-279072Y-341860D01*
X-279100Y-341904D01*
X-279122Y-341948D01*
X-279138Y-341982D01*
X-279161Y-342009D01*
X-279172Y-342026D01*
X-279177Y-342037D01*
X-279183Y-342043D01*
X-279238Y-342104D01*
X-279294Y-342159D01*
X-279360Y-342209D01*
X-279433Y-342253D01*
X-279577Y-342320D01*
X-279716Y-342376D01*
X-279788Y-342392D01*
X-279849Y-342409D01*
X-279904Y-342426D01*
X-279954Y-342431D01*
X-279999Y-342442D01*
X-280026D01*
X-280049Y-342448D01*
X-280054D01*
X-280126Y-341715D01*
X-280015Y-341704D01*
X-279921Y-341682D01*
X-279838Y-341660D01*
X-279777Y-341632D01*
X-279727Y-341610D01*
X-279693Y-341587D01*
X-279671Y-341571D01*
X-279666Y-341565D01*
X-279621Y-341510D01*
X-279588Y-341449D01*
X-279560Y-341388D01*
X-279544Y-341327D01*
X-279533Y-341277D01*
X-279527Y-341232D01*
Y-341194D01*
X-279533Y-341110D01*
X-279549Y-341038D01*
X-279571Y-340977D01*
X-279593Y-340921D01*
X-279616Y-340883D01*
X-279638Y-340849D01*
X-279655Y-340833D01*
X-279660Y-340827D01*
X-279716Y-340783D01*
X-279777Y-340750D01*
X-279838Y-340727D01*
X-279899Y-340711D01*
X-279954Y-340700D01*
X-280004Y-340694D01*
X-280032D01*
X-280037D01*
X-280043D01*
X-280126Y-340700D01*
X-280204Y-340716D01*
X-280282Y-340744D01*
X-280348Y-340772D01*
X-280409Y-340799D01*
X-280454Y-340827D01*
X-280482Y-340844D01*
X-280493Y-340849D01*
X-280526Y-340872D01*
X-280565Y-340905D01*
X-280615Y-340949D01*
X-280659Y-340994D01*
X-280765Y-341094D01*
X-280870Y-341194D01*
X-280970Y-341293D01*
X-281014Y-341338D01*
X-281048Y-341382D01*
X-281081Y-341416D01*
X-281103Y-341438D01*
X-281120Y-341454D01*
X-281125Y-341460D01*
X-281231Y-341571D01*
X-281331Y-341671D01*
X-281425Y-341765D01*
X-281508Y-341848D01*
X-281592Y-341926D01*
X-281669Y-341993D01*
X-281736Y-342054D01*
X-281802Y-342104D01*
X-281858Y-342148D01*
X-281908Y-342187D01*
X-281947Y-342220D01*
X-281986Y-342242D01*
X-282008Y-342265D01*
X-282030Y-342276D01*
X-282041Y-342287D01*
X-282047D01*
X-282174Y-342359D01*
X-282308Y-342414D01*
X-282430Y-342459D01*
X-282541Y-342492D01*
X-282641Y-342514D01*
X-282679Y-342520D01*
X-282713Y-342526D01*
X-282740Y-342531D01*
X-282763Y-342537D01*
X-282774D01*
X-282779D01*
Y-339956D01*
X-282097D01*
Y-341421D01*
X-282024Y-341377D01*
X-281963Y-341327D01*
X-281936Y-341304D01*
X-281913Y-341288D01*
X-281902Y-341277D01*
X-281897Y-341271D01*
X-281875Y-341249D01*
X-281847Y-341227D01*
X-281786Y-341160D01*
X-281714Y-341088D01*
X-281642Y-341016D01*
X-281575Y-340944D01*
X-281519Y-340883D01*
X-281497Y-340861D01*
X-281481Y-340844D01*
X-281475Y-340833D01*
X-281469Y-340827D01*
X-281353Y-340705D01*
X-281259Y-340605D01*
X-281170Y-340522D01*
X-281103Y-340455D01*
X-281048Y-340405D01*
X-281009Y-340372D01*
X-280981Y-340350D01*
X-280976Y-340344D01*
X-280881Y-340272D01*
X-280792Y-340211D01*
X-280709Y-340161D01*
X-280637Y-340122D01*
X-280576Y-340089D01*
X-280526Y-340067D01*
X-280498Y-340056D01*
X-280487Y-340050D01*
X-280398Y-340017D01*
X-280310Y-339995D01*
X-280226Y-339978D01*
X-280149Y-339967D01*
X-280087Y-339961D01*
X-280037Y-339956D01*
X-280004D01*
X-279993D01*
X-279910Y-339961D01*
D02*
G37*
G36*
X-282041Y-343780D02*
X-282779D01*
Y-343042D01*
X-282041D01*
Y-343780D01*
D02*
G37*
G36*
X-281442Y-344357D02*
X-281347Y-344368D01*
X-281253Y-344385D01*
X-281170Y-344401D01*
X-281086Y-344429D01*
X-281014Y-344457D01*
X-280942Y-344485D01*
X-280881Y-344518D01*
X-280826Y-344551D01*
X-280776Y-344579D01*
X-280737Y-344607D01*
X-280698Y-344635D01*
X-280670Y-344651D01*
X-280654Y-344668D01*
X-280643Y-344679D01*
X-280637Y-344684D01*
X-280576Y-344745D01*
X-280520Y-344812D01*
X-280470Y-344879D01*
X-280432Y-344945D01*
X-280398Y-345012D01*
X-280370Y-345078D01*
X-280326Y-345201D01*
X-280310Y-345256D01*
X-280298Y-345312D01*
X-280293Y-345356D01*
X-280287Y-345395D01*
X-280282Y-345428D01*
Y-345473D01*
X-280287Y-345550D01*
X-280298Y-345622D01*
X-280310Y-345689D01*
X-280332Y-345756D01*
X-280387Y-345872D01*
X-280443Y-345972D01*
X-280504Y-346050D01*
X-280532Y-346083D01*
X-280559Y-346111D01*
X-280581Y-346133D01*
X-280592Y-346150D01*
X-280604Y-346155D01*
X-280609Y-346161D01*
X-280493Y-346150D01*
X-280382Y-346139D01*
X-280282Y-346127D01*
X-280193Y-346111D01*
X-280115Y-346094D01*
X-280043Y-346077D01*
X-279982Y-346061D01*
X-279926Y-346039D01*
X-279877Y-346022D01*
X-279838Y-346011D01*
X-279804Y-345994D01*
X-279782Y-345983D01*
X-279760Y-345972D01*
X-279749Y-345961D01*
X-279738Y-345955D01*
X-279666Y-345894D01*
X-279616Y-345828D01*
X-279577Y-345761D01*
X-279555Y-345700D01*
X-279538Y-345645D01*
X-279533Y-345600D01*
X-279527Y-345572D01*
Y-345561D01*
X-279533Y-345500D01*
X-279544Y-345439D01*
X-279560Y-345389D01*
X-279577Y-345350D01*
X-279599Y-345317D01*
X-279616Y-345295D01*
X-279627Y-345278D01*
X-279632Y-345273D01*
X-279677Y-345234D01*
X-279727Y-345206D01*
X-279782Y-345178D01*
X-279832Y-345162D01*
X-279882Y-345151D01*
X-279921Y-345140D01*
X-279943Y-345134D01*
X-279954D01*
X-279877Y-344424D01*
X-279710Y-344462D01*
X-279571Y-344518D01*
X-279449Y-344579D01*
X-279344Y-344640D01*
X-279266Y-344701D01*
X-279238Y-344723D01*
X-279211Y-344751D01*
X-279194Y-344768D01*
X-279177Y-344784D01*
X-279166Y-344790D01*
Y-344795D01*
X-279122Y-344851D01*
X-279083Y-344906D01*
X-279022Y-345028D01*
X-278977Y-345151D01*
X-278950Y-345262D01*
X-278927Y-345361D01*
X-278922Y-345406D01*
Y-345445D01*
X-278916Y-345473D01*
Y-345517D01*
X-278922Y-345634D01*
X-278939Y-345739D01*
X-278961Y-345844D01*
X-278989Y-345939D01*
X-279027Y-346027D01*
X-279066Y-346116D01*
X-279111Y-346188D01*
X-279150Y-346261D01*
X-279194Y-346322D01*
X-279238Y-346377D01*
X-279277Y-346422D01*
X-279316Y-346460D01*
X-279344Y-346494D01*
X-279366Y-346516D01*
X-279383Y-346527D01*
X-279388Y-346533D01*
X-279483Y-346599D01*
X-279588Y-346660D01*
X-279704Y-346710D01*
X-279821Y-346755D01*
X-279949Y-346793D01*
X-280076Y-346827D01*
X-280204Y-346854D01*
X-280326Y-346871D01*
X-280443Y-346888D01*
X-280554Y-346899D01*
X-280654Y-346910D01*
X-280742Y-346916D01*
X-280815Y-346921D01*
X-280870D01*
X-280887D01*
X-280903D01*
X-280909D01*
X-280914D01*
X-281103Y-346916D01*
X-281275Y-346904D01*
X-281436Y-346888D01*
X-281580Y-346860D01*
X-281719Y-346832D01*
X-281841Y-346804D01*
X-281947Y-346771D01*
X-282047Y-346732D01*
X-282130Y-346699D01*
X-282202Y-346666D01*
X-282263Y-346638D01*
X-282313Y-346605D01*
X-282352Y-346583D01*
X-282380Y-346566D01*
X-282396Y-346555D01*
X-282402Y-346549D01*
X-282480Y-346477D01*
X-282552Y-346399D01*
X-282613Y-346322D01*
X-282663Y-346238D01*
X-282707Y-346161D01*
X-282740Y-346077D01*
X-282774Y-346000D01*
X-282796Y-345928D01*
X-282812Y-345855D01*
X-282829Y-345794D01*
X-282835Y-345733D01*
X-282846Y-345683D01*
Y-345645D01*
X-282851Y-345617D01*
Y-345589D01*
X-282846Y-345489D01*
X-282835Y-345395D01*
X-282818Y-345306D01*
X-282796Y-345223D01*
X-282768Y-345140D01*
X-282740Y-345067D01*
X-282707Y-345001D01*
X-282674Y-344940D01*
X-282641Y-344884D01*
X-282607Y-344840D01*
X-282579Y-344795D01*
X-282552Y-344762D01*
X-282529Y-344734D01*
X-282513Y-344718D01*
X-282502Y-344707D01*
X-282496Y-344701D01*
X-282430Y-344640D01*
X-282352Y-344584D01*
X-282274Y-344540D01*
X-282196Y-344501D01*
X-282119Y-344462D01*
X-282041Y-344435D01*
X-281886Y-344396D01*
X-281819Y-344379D01*
X-281752Y-344368D01*
X-281697Y-344362D01*
X-281647Y-344357D01*
X-281603Y-344351D01*
X-281575D01*
X-281553D01*
X-281547D01*
X-281442Y-344357D01*
D02*
G37*
G36*
X-280565Y-351528D02*
X-281198D01*
X-282341Y-348891D01*
X-281597D01*
X-280876Y-350734D01*
X-280171Y-348891D01*
X-279421D01*
X-280565Y-351528D01*
D02*
G37*
G36*
X-297439Y-340993D02*
X-299570D01*
X-299653D01*
X-299731D01*
X-299803Y-340999D01*
X-299869D01*
X-299925Y-341004D01*
X-299980D01*
X-300030Y-341010D01*
X-300075D01*
X-300142Y-341021D01*
X-300191Y-341026D01*
X-300219Y-341032D01*
X-300230D01*
X-300302Y-341049D01*
X-300363Y-341076D01*
X-300419Y-341110D01*
X-300469Y-341143D01*
X-300508Y-341176D01*
X-300535Y-341204D01*
X-300552Y-341226D01*
X-300558Y-341232D01*
X-300602Y-341298D01*
X-300635Y-341382D01*
X-300658Y-341459D01*
X-300674Y-341543D01*
X-300685Y-341615D01*
X-300691Y-341670D01*
Y-341726D01*
X-300685Y-341842D01*
X-300669Y-341942D01*
X-300646Y-342031D01*
X-300619Y-342109D01*
X-300597Y-342164D01*
X-300574Y-342209D01*
X-300558Y-342231D01*
X-300552Y-342242D01*
X-300497Y-342303D01*
X-300430Y-342353D01*
X-300369Y-342397D01*
X-300308Y-342425D01*
X-300253Y-342447D01*
X-300208Y-342464D01*
X-300180Y-342475D01*
X-300169D01*
X-300136Y-342481D01*
X-300103Y-342486D01*
X-300058D01*
X-300008Y-342492D01*
X-299903Y-342497D01*
X-299792D01*
X-299692Y-342503D01*
X-299647D01*
X-299603D01*
X-299570D01*
X-299548D01*
X-299531D01*
X-299525D01*
X-297439D01*
Y-343280D01*
X-299492D01*
X-299609D01*
X-299720Y-343274D01*
X-299825D01*
X-299920Y-343269D01*
X-300008Y-343263D01*
X-300086Y-343258D01*
X-300158Y-343252D01*
X-300225Y-343241D01*
X-300280Y-343235D01*
X-300330Y-343230D01*
X-300375Y-343224D01*
X-300408Y-343219D01*
X-300436Y-343213D01*
X-300452D01*
X-300463Y-343208D01*
X-300469D01*
X-300552Y-343180D01*
X-300630Y-343152D01*
X-300702Y-343113D01*
X-300763Y-343080D01*
X-300819Y-343047D01*
X-300863Y-343019D01*
X-300885Y-342997D01*
X-300896Y-342991D01*
X-300968Y-342925D01*
X-301035Y-342852D01*
X-301091Y-342775D01*
X-301140Y-342703D01*
X-301179Y-342641D01*
X-301207Y-342586D01*
X-301224Y-342553D01*
X-301229Y-342547D01*
Y-342542D01*
X-301252Y-342486D01*
X-301268Y-342425D01*
X-301301Y-342286D01*
X-301324Y-342148D01*
X-301335Y-342014D01*
X-301340Y-341953D01*
X-301346Y-341892D01*
Y-341842D01*
X-301351Y-341792D01*
Y-341704D01*
X-301346Y-341543D01*
X-301335Y-341398D01*
X-301312Y-341271D01*
X-301290Y-341165D01*
X-301285Y-341121D01*
X-301274Y-341076D01*
X-301263Y-341043D01*
X-301252Y-341015D01*
X-301246Y-340993D01*
X-301240Y-340977D01*
X-301235Y-340971D01*
Y-340965D01*
X-301190Y-340865D01*
X-301135Y-340777D01*
X-301085Y-340699D01*
X-301035Y-340632D01*
X-300991Y-340582D01*
X-300957Y-340544D01*
X-300935Y-340521D01*
X-300924Y-340516D01*
X-300846Y-340455D01*
X-300763Y-340405D01*
X-300685Y-340366D01*
X-300608Y-340333D01*
X-300541Y-340311D01*
X-300486Y-340294D01*
X-300469Y-340288D01*
X-300452D01*
X-300447Y-340283D01*
X-300441D01*
X-300380Y-340272D01*
X-300313Y-340261D01*
X-300241Y-340249D01*
X-300169Y-340244D01*
X-300003Y-340233D01*
X-299842Y-340222D01*
X-299770D01*
X-299697D01*
X-299631Y-340216D01*
X-299575D01*
X-299531D01*
X-299492D01*
X-299470D01*
X-299464D01*
X-297439D01*
Y-340993D01*
D02*
G37*
G36*
X-297489Y-346421D02*
X-298171D01*
Y-344750D01*
X-298421Y-344934D01*
X-298682Y-345095D01*
X-298804Y-345172D01*
X-298932Y-345239D01*
X-299048Y-345300D01*
X-299159Y-345356D01*
X-299265Y-345405D01*
X-299359Y-345450D01*
X-299448Y-345489D01*
X-299520Y-345522D01*
X-299575Y-345544D01*
X-299620Y-345561D01*
X-299647Y-345572D01*
X-299659Y-345578D01*
X-299814Y-345633D01*
X-299964Y-345683D01*
X-300114Y-345722D01*
X-300258Y-345761D01*
X-300402Y-345788D01*
X-300535Y-345816D01*
X-300663Y-345838D01*
X-300780Y-345855D01*
X-300885Y-345872D01*
X-300985Y-345883D01*
X-301068Y-345894D01*
X-301140Y-345899D01*
X-301202D01*
X-301246Y-345905D01*
X-301268D01*
X-301279D01*
Y-345195D01*
X-301085Y-345189D01*
X-300885Y-345172D01*
X-300691Y-345145D01*
X-300602Y-345133D01*
X-300513Y-345117D01*
X-300436Y-345100D01*
X-300358Y-345083D01*
X-300297Y-345072D01*
X-300241Y-345061D01*
X-300191Y-345050D01*
X-300158Y-345039D01*
X-300136Y-345034D01*
X-300130D01*
X-299892Y-344961D01*
X-299664Y-344884D01*
X-299559Y-344845D01*
X-299459Y-344800D01*
X-299364Y-344762D01*
X-299276Y-344723D01*
X-299198Y-344684D01*
X-299126Y-344651D01*
X-299059Y-344617D01*
X-299009Y-344595D01*
X-298965Y-344573D01*
X-298937Y-344556D01*
X-298915Y-344545D01*
X-298909Y-344540D01*
X-298804Y-344479D01*
X-298704Y-344418D01*
X-298615Y-344362D01*
X-298526Y-344306D01*
X-298449Y-344251D01*
X-298377Y-344196D01*
X-298310Y-344146D01*
X-298249Y-344101D01*
X-298193Y-344057D01*
X-298149Y-344018D01*
X-298110Y-343985D01*
X-298077Y-343957D01*
X-298055Y-343935D01*
X-298038Y-343918D01*
X-298027Y-343907D01*
X-298021Y-343901D01*
X-297489D01*
Y-346421D01*
D02*
G37*
G36*
X-299065Y-351028D02*
X-299697D01*
X-300841Y-348391D01*
X-300097D01*
X-299376Y-350234D01*
X-298671Y-348391D01*
X-297921D01*
X-299065Y-351028D01*
D02*
G37*
%LPC*%
G36*
X-675997Y-344573D02*
X-676019D01*
X-676042D01*
X-676053D01*
X-676058D01*
X-676186Y-344579D01*
X-676297Y-344595D01*
X-676386Y-344617D01*
X-676458Y-344639D01*
X-676513Y-344667D01*
X-676552Y-344689D01*
X-676580Y-344706D01*
X-676585Y-344712D01*
X-676635Y-344767D01*
X-676674Y-344823D01*
X-676702Y-344884D01*
X-676719Y-344934D01*
X-676730Y-344984D01*
X-676741Y-345023D01*
Y-345056D01*
X-676730Y-345133D01*
X-676708Y-345206D01*
X-676680Y-345267D01*
X-676641Y-345322D01*
X-676608Y-345367D01*
X-676574Y-345405D01*
X-676552Y-345428D01*
X-676547Y-345433D01*
X-676469Y-345489D01*
X-676380Y-345528D01*
X-676286Y-345555D01*
X-676197Y-345572D01*
X-676114Y-345583D01*
X-676053Y-345594D01*
X-676025D01*
X-676008D01*
X-675997D01*
X-675992D01*
X-675875Y-345589D01*
X-675775Y-345572D01*
X-675692Y-345550D01*
X-675620Y-345522D01*
X-675570Y-345494D01*
X-675531Y-345472D01*
X-675503Y-345455D01*
X-675498Y-345450D01*
X-675442Y-345394D01*
X-675398Y-345333D01*
X-675370Y-345272D01*
X-675348Y-345217D01*
X-675337Y-345167D01*
X-675326Y-345122D01*
Y-345089D01*
X-675331Y-345011D01*
X-675353Y-344939D01*
X-675381Y-344878D01*
X-675414Y-344823D01*
X-675448Y-344778D01*
X-675476Y-344750D01*
X-675498Y-344728D01*
X-675503Y-344723D01*
X-675575Y-344673D01*
X-675664Y-344634D01*
X-675759Y-344612D01*
X-675847Y-344590D01*
X-675931Y-344579D01*
X-675997Y-344573D01*
D02*
G37*
G36*
X-281497Y-345073D02*
X-281519D01*
X-281542D01*
X-281553D01*
X-281558D01*
X-281686Y-345078D01*
X-281797Y-345095D01*
X-281886Y-345117D01*
X-281958Y-345140D01*
X-282013Y-345167D01*
X-282052Y-345189D01*
X-282080Y-345206D01*
X-282085Y-345212D01*
X-282135Y-345267D01*
X-282174Y-345323D01*
X-282202Y-345384D01*
X-282219Y-345434D01*
X-282230Y-345484D01*
X-282241Y-345522D01*
Y-345556D01*
X-282230Y-345634D01*
X-282208Y-345706D01*
X-282180Y-345767D01*
X-282141Y-345822D01*
X-282108Y-345867D01*
X-282074Y-345905D01*
X-282052Y-345928D01*
X-282047Y-345933D01*
X-281969Y-345989D01*
X-281880Y-346027D01*
X-281786Y-346055D01*
X-281697Y-346072D01*
X-281614Y-346083D01*
X-281553Y-346094D01*
X-281525D01*
X-281508D01*
X-281497D01*
X-281492D01*
X-281375Y-346089D01*
X-281275Y-346072D01*
X-281192Y-346050D01*
X-281120Y-346022D01*
X-281070Y-345994D01*
X-281031Y-345972D01*
X-281003Y-345955D01*
X-280998Y-345950D01*
X-280942Y-345894D01*
X-280898Y-345833D01*
X-280870Y-345772D01*
X-280848Y-345717D01*
X-280837Y-345667D01*
X-280826Y-345622D01*
Y-345589D01*
X-280831Y-345511D01*
X-280853Y-345439D01*
X-280881Y-345378D01*
X-280914Y-345323D01*
X-280948Y-345278D01*
X-280976Y-345251D01*
X-280998Y-345228D01*
X-281003Y-345223D01*
X-281075Y-345173D01*
X-281164Y-345134D01*
X-281259Y-345112D01*
X-281347Y-345090D01*
X-281431Y-345078D01*
X-281497Y-345073D01*
D02*
G37*
%LPD*%
D13*
X-840067Y-349748D02*
X-830746D01*
Y-352532D02*
X-827962Y-349748D01*
X-830746Y-352532D02*
Y-346964D01*
X-827962Y-349748D01*
X-886673D02*
X-877351D01*
X-889457D02*
X-886673Y-346964D01*
Y-352532D02*
Y-346964D01*
X-889457Y-349748D02*
X-886673Y-352532D01*
X-909851Y-360528D02*
X-806851D01*
X-162067Y-351748D02*
X-152745D01*
Y-348964D02*
X-149962Y-351748D01*
X-152745Y-354532D02*
Y-348964D01*
Y-354532D02*
X-149962Y-351748D01*
X-211457D02*
X-208673Y-354532D01*
Y-348964D01*
X-211457Y-351748D02*
X-208673Y-348964D01*
Y-351748D02*
X-199351D01*
X-237619Y-362528D02*
X-127383D01*
D14*
X-130319Y-358084D02*
X-129827Y-357592D01*
X-128843D01*
X-128351Y-358084D01*
Y-360052D01*
X-128843Y-360544D01*
X-129827D01*
X-130319Y-360052D01*
X-131303Y-360544D02*
X-132287D01*
X-131795D01*
Y-358576D01*
X-131303D01*
X-133763D02*
Y-360544D01*
Y-359560D01*
X-134255Y-359068D01*
X-134747Y-358576D01*
X-135239D01*
X-138683D02*
X-137207D01*
X-136715Y-359068D01*
Y-360052D01*
X-137207Y-360544D01*
X-138683D01*
X-139667D02*
X-140651D01*
X-140159D01*
Y-357592D01*
X-139667D01*
X-143602Y-360544D02*
X-142619D01*
X-142127Y-360052D01*
Y-359068D01*
X-142619Y-358576D01*
X-143602D01*
X-144094Y-359068D01*
Y-359560D01*
X-142127D01*
X-145078Y-360544D02*
X-146554D01*
X-147046Y-360052D01*
X-146554Y-359560D01*
X-145570D01*
X-145078Y-359068D01*
X-145570Y-358576D01*
X-147046D01*
X-150982Y-360544D02*
X-152458D01*
X-152950Y-360052D01*
X-152458Y-359560D01*
X-151474D01*
X-150982Y-359068D01*
X-151474Y-358576D01*
X-152950D01*
X-153934Y-357592D02*
Y-360544D01*
Y-359068D01*
X-154426Y-358576D01*
X-155410D01*
X-155902Y-359068D01*
Y-360544D01*
X-157378D02*
X-158361D01*
X-158853Y-360052D01*
Y-359068D01*
X-158361Y-358576D01*
X-157378D01*
X-156886Y-359068D01*
Y-360052D01*
X-157378Y-360544D01*
X-159837Y-358576D02*
Y-360052D01*
X-160329Y-360544D01*
X-160821Y-360052D01*
X-161313Y-360544D01*
X-161805Y-360052D01*
Y-358576D01*
X-162789Y-360544D02*
X-164265D01*
X-164757Y-360052D01*
X-164265Y-359560D01*
X-163281D01*
X-162789Y-359068D01*
X-163281Y-358576D01*
X-164757D01*
X-168693Y-357592D02*
X-170661D01*
X-169677D01*
Y-360544D01*
X-171645D02*
X-173120D01*
X-173612Y-360052D01*
X-173120Y-359560D01*
X-172137D01*
X-171645Y-359068D01*
X-172137Y-358576D01*
X-173612D01*
X-175088D02*
X-176072D01*
X-176564Y-359068D01*
Y-360544D01*
X-175088D01*
X-174596Y-360052D01*
X-175088Y-359560D01*
X-176564D01*
X-177548Y-360544D02*
Y-358576D01*
X-179024D01*
X-179516Y-359068D01*
Y-360544D01*
X-181484Y-361528D02*
X-181976D01*
X-182468Y-361036D01*
Y-358576D01*
X-180992D01*
X-180500Y-359068D01*
Y-360052D01*
X-180992Y-360544D01*
X-182468D01*
X-183944Y-358576D02*
X-184928D01*
X-185420Y-359068D01*
Y-360544D01*
X-183944D01*
X-183452Y-360052D01*
X-183944Y-359560D01*
X-185420D01*
X-186404Y-360544D02*
Y-358576D01*
X-187880D01*
X-188372Y-359068D01*
Y-360544D01*
X-192307D02*
X-193291D01*
X-192799D01*
Y-357592D01*
X-192307D01*
X-195259Y-358576D02*
X-196243D01*
X-196735Y-359068D01*
Y-360544D01*
X-195259D01*
X-194767Y-360052D01*
X-195259Y-359560D01*
X-196735D01*
X-197719Y-358576D02*
Y-360052D01*
X-198211Y-360544D01*
X-199687D01*
Y-361036D01*
X-199195Y-361528D01*
X-198703D01*
X-199687Y-360544D02*
Y-358576D01*
X-201163Y-360544D02*
X-202147D01*
X-202639Y-360052D01*
Y-359068D01*
X-202147Y-358576D01*
X-201163D01*
X-200671Y-359068D01*
Y-360052D01*
X-201163Y-360544D01*
X-203623Y-358576D02*
Y-360052D01*
X-204115Y-360544D01*
X-205590D01*
Y-358576D01*
X-207066Y-358084D02*
Y-358576D01*
X-206574D01*
X-207558D01*
X-207066D01*
Y-360052D01*
X-207558Y-360544D01*
X-209526Y-361036D02*
X-210018Y-360544D01*
Y-360052D01*
X-209526D01*
Y-360544D01*
X-210018D01*
X-209526Y-361036D01*
X-209034Y-361528D01*
X-214938Y-357592D02*
X-216906D01*
Y-358084D01*
X-214938Y-360052D01*
Y-360544D01*
X-217890Y-357592D02*
Y-360052D01*
X-218382Y-360544D01*
X-219366D01*
X-219858Y-360052D01*
Y-357592D01*
X-223793Y-360544D02*
X-225269D01*
X-225761Y-360052D01*
X-225269Y-359560D01*
X-224285D01*
X-223793Y-359068D01*
X-224285Y-358576D01*
X-225761D01*
X-226745Y-361528D02*
Y-358576D01*
X-228221D01*
X-228713Y-359068D01*
Y-360052D01*
X-228221Y-360544D01*
X-226745D01*
X-230189Y-358576D02*
X-231173D01*
X-231665Y-359068D01*
Y-360544D01*
X-230189D01*
X-229697Y-360052D01*
X-230189Y-359560D01*
X-231665D01*
X-234616Y-358576D02*
X-233141D01*
X-232649Y-359068D01*
Y-360052D01*
X-233141Y-360544D01*
X-234616D01*
X-237076D02*
X-236092D01*
X-235600Y-360052D01*
Y-359068D01*
X-236092Y-358576D01*
X-237076D01*
X-237568Y-359068D01*
Y-359560D01*
X-235600D01*
X-808851Y-355592D02*
X-810819Y-358544D01*
Y-355592D02*
X-808851Y-358544D01*
X-814755D02*
X-816231D01*
X-816723Y-358052D01*
X-816231Y-357560D01*
X-815247D01*
X-814755Y-357068D01*
X-815247Y-356576D01*
X-816723D01*
X-817707Y-355592D02*
Y-358544D01*
Y-357068D01*
X-818199Y-356576D01*
X-819183D01*
X-819675Y-357068D01*
Y-358544D01*
X-821151D02*
X-822134D01*
X-822626Y-358052D01*
Y-357068D01*
X-822134Y-356576D01*
X-821151D01*
X-820659Y-357068D01*
Y-358052D01*
X-821151Y-358544D01*
X-823610Y-356576D02*
Y-358052D01*
X-824102Y-358544D01*
X-824594Y-358052D01*
X-825086Y-358544D01*
X-825578Y-358052D01*
Y-356576D01*
X-826562Y-358544D02*
X-828038D01*
X-828530Y-358052D01*
X-828038Y-357560D01*
X-827054D01*
X-826562Y-357068D01*
X-827054Y-356576D01*
X-828530D01*
X-834434Y-355592D02*
X-833450Y-356084D01*
X-832466Y-357068D01*
Y-358052D01*
X-832958Y-358544D01*
X-833942D01*
X-834434Y-358052D01*
Y-357560D01*
X-833942Y-357068D01*
X-832466D01*
X-835418Y-358544D02*
Y-358052D01*
X-835910D01*
Y-358544D01*
X-835418D01*
X-839845D02*
X-837877D01*
X-839845Y-356576D01*
Y-356084D01*
X-839353Y-355592D01*
X-838369D01*
X-837877Y-356084D01*
X-842797Y-355592D02*
X-840829D01*
Y-357068D01*
X-841813Y-356576D01*
X-842305D01*
X-842797Y-357068D01*
Y-358052D01*
X-842305Y-358544D01*
X-841321D01*
X-840829Y-358052D01*
X-843781Y-355592D02*
Y-358052D01*
X-844273Y-358544D01*
X-845257D01*
X-845749Y-358052D01*
Y-355592D01*
X-849685Y-358544D02*
X-851161D01*
X-851653Y-358052D01*
X-851161Y-357560D01*
X-850177D01*
X-849685Y-357068D01*
X-850177Y-356576D01*
X-851653D01*
X-852637Y-359528D02*
Y-356576D01*
X-854113D01*
X-854604Y-357068D01*
Y-358052D01*
X-854113Y-358544D01*
X-852637D01*
X-856080Y-356576D02*
X-857064D01*
X-857556Y-357068D01*
Y-358544D01*
X-856080D01*
X-855588Y-358052D01*
X-856080Y-357560D01*
X-857556D01*
X-860508Y-356576D02*
X-859032D01*
X-858540Y-357068D01*
Y-358052D01*
X-859032Y-358544D01*
X-860508D01*
X-862968D02*
X-861984D01*
X-861492Y-358052D01*
Y-357068D01*
X-861984Y-356576D01*
X-862968D01*
X-863460Y-357068D01*
Y-357560D01*
X-861492D01*
X-867396Y-356576D02*
Y-358052D01*
X-867888Y-358544D01*
X-868380Y-358052D01*
X-868871Y-358544D01*
X-869363Y-358052D01*
Y-356576D01*
X-870347Y-358544D02*
X-871331D01*
X-870839D01*
Y-356576D01*
X-870347D01*
X-873299Y-356084D02*
Y-356576D01*
X-872807D01*
X-873791D01*
X-873299D01*
Y-358052D01*
X-873791Y-358544D01*
X-875267Y-355592D02*
Y-358544D01*
Y-357068D01*
X-875759Y-356576D01*
X-876743D01*
X-877235Y-357068D01*
Y-358544D01*
X-881171D02*
X-882155D01*
X-881663D01*
Y-355592D01*
X-881171Y-356084D01*
X-883631Y-358544D02*
Y-358052D01*
X-884122D01*
Y-358544D01*
X-883631D01*
X-888058D02*
X-886090D01*
X-888058Y-356576D01*
Y-356084D01*
X-887566Y-355592D01*
X-886582D01*
X-886090Y-356084D01*
X-891010Y-355592D02*
X-889042D01*
Y-357068D01*
X-890026Y-356576D01*
X-890518D01*
X-891010Y-357068D01*
Y-358052D01*
X-890518Y-358544D01*
X-889534D01*
X-889042Y-358052D01*
X-891994Y-355592D02*
Y-358052D01*
X-892486Y-358544D01*
X-893470D01*
X-893962Y-358052D01*
Y-355592D01*
X-897898Y-358544D02*
Y-356576D01*
X-898390D01*
X-898882Y-357068D01*
Y-358544D01*
Y-357068D01*
X-899374Y-356576D01*
X-899866Y-357068D01*
Y-358544D01*
X-901341D02*
X-902325D01*
X-902817Y-358052D01*
Y-357068D01*
X-902325Y-356576D01*
X-901341D01*
X-900850Y-357068D01*
Y-358052D01*
X-901341Y-358544D01*
X-905769Y-355592D02*
Y-358544D01*
X-904293D01*
X-903801Y-358052D01*
Y-357068D01*
X-904293Y-356576D01*
X-905769D01*
X-906753Y-358544D02*
X-908229D01*
X-908721Y-358052D01*
X-908229Y-357560D01*
X-907245D01*
X-906753Y-357068D01*
X-907245Y-356576D01*
X-908721D01*
D63*
X-16399Y-409528D02*
X-16559Y-408569D01*
X-17021Y-407714D01*
X-17736Y-407056D01*
X-18627Y-406665D01*
X-19595Y-406585D01*
X-20538Y-406823D01*
X-21351Y-407355D01*
X-21948Y-408122D01*
X-22264Y-409042D01*
Y-410014D01*
X-21948Y-410933D01*
X-21351Y-411700D01*
X-20538Y-412232D01*
X-19595Y-412470D01*
X-18627Y-412390D01*
X-17736Y-412000D01*
X-17021Y-411341D01*
X-16559Y-410486D01*
X-16399Y-409528D01*
X-110147D02*
X-110307Y-408569D01*
X-110769Y-407714D01*
X-111484Y-407056D01*
X-112374Y-406665D01*
X-113343Y-406585D01*
X-114286Y-406823D01*
X-115099Y-407355D01*
X-115696Y-408122D01*
X-116012Y-409042D01*
Y-410014D01*
X-115696Y-410933D01*
X-115099Y-411700D01*
X-114286Y-412232D01*
X-113343Y-412470D01*
X-112374Y-412390D01*
X-111484Y-412000D01*
X-110769Y-411341D01*
X-110307Y-410486D01*
X-110147Y-409528D01*
X-203897D02*
X-204057Y-408569D01*
X-204519Y-407714D01*
X-205234Y-407056D01*
X-206124Y-406665D01*
X-207093Y-406585D01*
X-208035Y-406823D01*
X-208849Y-407355D01*
X-209446Y-408122D01*
X-209762Y-409042D01*
Y-410014D01*
X-209446Y-410933D01*
X-208849Y-411700D01*
X-208035Y-412232D01*
X-207093Y-412470D01*
X-206124Y-412390D01*
X-205234Y-412000D01*
X-204519Y-411341D01*
X-204057Y-410486D01*
X-203897Y-409528D01*
X-522647D02*
X-522807Y-408569D01*
X-523269Y-407714D01*
X-523984Y-407056D01*
X-524874Y-406665D01*
X-525843Y-406585D01*
X-526786Y-406823D01*
X-527599Y-407355D01*
X-528196Y-408122D01*
X-528512Y-409042D01*
Y-410014D01*
X-528196Y-410933D01*
X-527599Y-411700D01*
X-526786Y-412232D01*
X-525843Y-412470D01*
X-524874Y-412390D01*
X-523984Y-412000D01*
X-523269Y-411341D01*
X-522807Y-410486D01*
X-522647Y-409528D01*
X-1028897D02*
X-1029057Y-408569D01*
X-1029519Y-407714D01*
X-1030234Y-407056D01*
X-1031125Y-406665D01*
X-1032093Y-406585D01*
X-1033035Y-406823D01*
X-1033849Y-407355D01*
X-1034446Y-408122D01*
X-1034762Y-409042D01*
Y-410014D01*
X-1034446Y-410933D01*
X-1033849Y-411700D01*
X-1033035Y-412232D01*
X-1032093Y-412470D01*
X-1031125Y-412390D01*
X-1030234Y-412000D01*
X-1029519Y-411341D01*
X-1029057Y-410486D01*
X-1028897Y-409528D01*
X-935147D02*
X-935307Y-408569D01*
X-935769Y-407714D01*
X-936484Y-407056D01*
X-937375Y-406665D01*
X-938343Y-406585D01*
X-939285Y-406823D01*
X-940099Y-407355D01*
X-940696Y-408122D01*
X-941012Y-409042D01*
Y-410014D01*
X-940696Y-410933D01*
X-940099Y-411700D01*
X-939285Y-412232D01*
X-938343Y-412470D01*
X-937375Y-412390D01*
X-936484Y-412000D01*
X-935769Y-411341D01*
X-935307Y-410486D01*
X-935147Y-409528D01*
X-841397D02*
X-841557Y-408569D01*
X-842019Y-407714D01*
X-842734Y-407056D01*
X-843625Y-406665D01*
X-844593Y-406585D01*
X-845535Y-406823D01*
X-846349Y-407355D01*
X-846946Y-408122D01*
X-847262Y-409042D01*
Y-410014D01*
X-846946Y-410933D01*
X-846349Y-411700D01*
X-845535Y-412232D01*
X-844593Y-412470D01*
X-843625Y-412390D01*
X-842734Y-412000D01*
X-842019Y-411341D01*
X-841557Y-410486D01*
X-841397Y-409528D01*
X-140670Y-351748D02*
X-140830Y-350789D01*
X-141293Y-349934D01*
X-142008Y-349276D01*
X-142898Y-348886D01*
X-143867Y-348805D01*
X-144809Y-349044D01*
X-145623Y-349576D01*
X-146220Y-350343D01*
X-146536Y-351262D01*
Y-352234D01*
X-146220Y-353153D01*
X-145623Y-353920D01*
X-144809Y-354452D01*
X-143867Y-354691D01*
X-142898Y-354610D01*
X-142008Y-354220D01*
X-141293Y-353562D01*
X-140830Y-352707D01*
X-140670Y-351748D01*
X-215670D02*
X-215830Y-350789D01*
X-216293Y-349934D01*
X-217008Y-349276D01*
X-217898Y-348886D01*
X-218867Y-348805D01*
X-219809Y-349044D01*
X-220623Y-349576D01*
X-221220Y-350343D01*
X-221535Y-351262D01*
Y-352234D01*
X-221220Y-353153D01*
X-220623Y-353920D01*
X-219809Y-354452D01*
X-218867Y-354691D01*
X-217898Y-354610D01*
X-217008Y-354220D01*
X-216293Y-353562D01*
X-215830Y-352707D01*
X-215670Y-351748D01*
X-11277Y-407361D02*
X-6685Y-411953D01*
X-8981Y-409657D01*
X-6685Y-407361D01*
X-11277Y-411953D01*
X-105025Y-407361D02*
X-100433Y-411953D01*
X-102729Y-409657D01*
X-100433Y-407361D01*
X-105025Y-411953D01*
X-198775Y-407361D02*
X-194183Y-411953D01*
X-196479Y-409657D01*
X-194183Y-407361D01*
X-198775Y-411953D01*
X-480025Y-407361D02*
X-475433Y-411953D01*
X-477729Y-409657D01*
X-475433Y-407361D01*
X-480025Y-411953D01*
X-761277Y-407361D02*
X-756685Y-411953D01*
X-758981Y-409657D01*
X-756685Y-407361D01*
X-761277Y-411953D01*
X-855025Y-407361D02*
X-850433Y-411953D01*
X-852729Y-409657D01*
X-850433Y-407361D01*
X-855025Y-411953D01*
X-948775Y-407361D02*
X-944183Y-411953D01*
X-946479Y-409657D01*
X-944183Y-407361D01*
X-948775Y-411953D01*
X-1042525Y-407361D02*
X-1037933Y-411953D01*
X-1040229Y-409657D01*
X-1037933Y-407361D01*
X-1042525Y-411953D01*
X-899777Y-347861D02*
X-895185Y-352453D01*
X-897481Y-350157D01*
X-895185Y-347861D01*
X-899777Y-352453D01*
X-822777Y-347861D02*
X-818185Y-352453D01*
X-820481Y-350157D01*
X-818185Y-347861D01*
X-822777Y-352453D01*
M02*
